<svg width="0" height="0" class="hidden">
  <symbol fill="none" xmlns="http://www.w3.org/2000/svg" viewBox="0 0 18 22" id="bolt">
    <path fill-rule="evenodd" clip-rule="evenodd" d="M11.6152 0.594929C11.9165 0.762871 12.0643 1.1146 11.9736 1.44734L9.98195 8.75H17.25C17.5487 8.75 17.8189 8.92719 17.9379 9.20109C18.0569 9.475 18.0021 9.79341 17.7983 10.0117L7.29831 21.2617C7.06298 21.5139 6.68604 21.573 6.38481 21.4051C6.08357 21.2371 5.9357 20.8854 6.02644 20.5527L8.01808 13.25H0.750016C0.451369 13.25 0.181182 13.0728 0.062156 12.7989C-0.0568695 12.525 -0.00204775 12.2066 0.201725 11.9883L10.7017 0.738264C10.937 0.486131 11.314 0.426986 11.6152 0.594929Z" fill="#262626"></path>
  </symbol>
  <symbol fill="none" xmlns="http://www.w3.org/2000/svg" viewBox="0 0 39 43" id="abstract_line">
    <path fill-rule="evenodd" clip-rule="evenodd" d="M13.0489 40.1274C9.32492 39.0757 5.42609 38.5452 1.64397 38.0592C0.829355 37.9573 0.0730442 38.5259 0.0148577 39.3269C-0.101515 40.1286 0.480691 40.8617 1.23712 40.9636C4.90286 41.4314 8.68465 41.9321 12.234 42.9445C12.9904 43.1641 13.8054 42.7121 14.0381 41.9345C14.2709 41.1574 13.8053 40.3476 13.0489 40.1274Z" fill="#262626"></path>
    <path fill-rule="evenodd" clip-rule="evenodd" d="M24.3365 25.2172C18.3433 19.0623 11.5937 13.6997 5.71685 7.37974C5.19318 6.78949 4.26219 6.75787 3.68033 7.30888C3.09846 7.86048 3.0405 8.78802 3.62237 9.37826C9.4992 15.7164 16.2488 21.0966 22.242 27.2696C22.8239 27.8458 23.7547 27.854 24.3365 27.2872C24.8602 26.7209 24.9184 25.7934 24.3365 25.2172Z" fill="#262626"></path>
    <path fill-rule="evenodd" clip-rule="evenodd" d="M35.5672 1.54341C35.7417 5.06616 35.9159 8.58891 36.0905 12.1123C36.0905 12.9192 36.7891 13.5422 37.6037 13.503C38.4183 13.4631 38.9998 12.7763 38.9998 11.9688C38.8253 8.44018 38.651 4.91216 38.4765 1.38413C38.4183 0.577224 37.7199 -0.0417174 36.9053 0.00219986C36.1489 0.0461172 35.509 0.737085 35.5672 1.54341Z" fill="#262626"></path>
  </symbol>
  <symbol fill="none" xmlns="http://www.w3.org/2000/svg" viewBox="0 0 50 24" id="zoom_logo">
    <g clip-path="url(#clip0_127_20)">
      <path fill-rule="evenodd" clip-rule="evenodd" d="M40.1876 10.2999C40.3747 10.6227 40.4359 10.99 40.4561 11.4029L40.4827 11.9532V15.8016L40.5098 16.3525C40.5641 17.2523 41.2277 17.9175 42.1343 17.9741L42.6824 18.0013V11.9532L42.7095 11.4029C42.732 10.9946 42.7927 10.6204 42.9827 10.2952C43.1763 9.96177 43.4542 9.68509 43.7885 9.49299C44.1229 9.30089 44.5019 9.20014 44.8875 9.20084C45.2731 9.20154 45.6517 9.30368 45.9854 9.49699C46.319 9.69031 46.5959 9.96799 46.7883 10.3022C46.9754 10.625 47.0337 10.9992 47.0563 11.4029L47.0834 11.9515V15.8016L47.1105 16.3525C47.1671 17.2569 47.8255 17.9221 48.735 17.9741L49.283 18.0013V11.4029C49.283 10.2361 48.8197 9.11708 47.9948 8.29189C47.1699 7.46669 46.0511 7.00287 44.8843 7.00241C44.2598 7.00175 43.6424 7.13437 43.0733 7.3914C42.5041 7.64843 41.9964 8.02397 41.584 8.49291C41.1714 8.02415 40.6636 7.64871 40.0945 7.3916C39.5254 7.13449 38.9081 7.00162 38.2836 7.00183C37.37 7.00183 36.5223 7.27902 35.8201 7.75776C35.3916 7.2796 34.4329 7.00183 33.8826 7.00183V18.0013L34.4329 17.9741C35.3535 17.9135 36.0187 17.2661 36.0545 16.3525L36.084 15.8016V11.9532L36.1111 11.4029C36.1342 10.9877 36.192 10.6227 36.3796 10.2976C36.5734 9.96428 36.8512 9.68767 37.1853 9.49534C37.5194 9.30301 37.8981 9.20168 38.2836 9.20148C38.6694 9.20157 39.0484 9.30309 39.3826 9.49588C39.7168 9.68866 39.9944 9.96593 40.1876 10.2999ZM2.53364 17.9747L3.08398 18.0013H11.3334L11.3063 17.4526C11.2318 16.5483 10.5913 15.8876 9.6841 15.8287L9.13375 15.8016H4.18468L10.7831 9.20091L10.7559 8.65287C10.7132 7.73928 10.0456 7.07921 9.13375 7.02897L8.5834 7.00414L0.333984 7.00183L0.361126 7.55218C0.433312 8.44786 1.08299 9.12237 1.98271 9.17434L2.53364 9.20148H7.48271L0.884331 15.8022L0.911473 16.3525C0.965757 17.2592 1.62005 17.9158 2.53364 17.9741V17.9747ZM31.7234 8.61187C32.2342 9.12255 32.6393 9.72886 32.9158 10.3962C33.1922 11.0635 33.3345 11.7787 33.3345 12.501C33.3345 13.2233 33.1922 13.9385 32.9158 14.6058C32.6393 15.2731 32.2342 15.8794 31.7234 16.3901C30.6914 17.4212 29.2922 18.0004 27.8334 18.0004C26.3746 18.0004 24.9754 17.4212 23.9434 16.3901C21.7958 14.2424 21.7958 10.7595 23.9434 8.61187C24.4538 8.10135 25.0596 7.69636 25.7265 7.42001C26.3933 7.14366 27.1081 7.00137 27.8299 7.00125C28.5529 7.00075 29.269 7.14279 29.937 7.41926C30.6051 7.69572 31.2121 8.10118 31.7234 8.61245V8.61187ZM30.167 10.1694C30.7856 10.7884 31.1331 11.6278 31.1331 12.503C31.1331 13.3782 30.7856 14.2175 30.167 14.8366C29.548 15.4552 28.7086 15.8027 27.8334 15.8027C26.9582 15.8027 26.1188 15.4552 25.4998 14.8366C24.8812 14.2175 24.5337 13.3782 24.5337 12.503C24.5337 11.6278 24.8812 10.7884 25.4998 10.1694C26.1188 9.55074 26.9582 9.20325 27.8334 9.20325C28.7086 9.20325 29.548 9.55074 30.167 10.1694ZM16.2871 7.00125C17.009 7.00144 17.7238 7.14383 18.3906 7.42028C19.0575 7.69673 19.6633 8.10183 20.1736 8.61245C22.3219 10.7595 22.3219 14.243 20.1736 16.3901C19.1416 17.4212 17.7425 18.0004 16.2836 18.0004C14.8248 18.0004 13.4256 17.4212 12.3937 16.3901C10.246 14.2424 10.246 10.7595 12.3937 8.61187C12.904 8.10135 13.5099 7.69636 14.1767 7.42001C14.8436 7.14366 15.5583 7.00137 16.2802 7.00125H16.2871ZM18.6173 10.1682C19.2361 10.7873 19.5837 11.6268 19.5837 12.5021C19.5837 13.3774 19.2361 14.2169 18.6173 14.836C17.9982 15.4547 17.1588 15.8021 16.2836 15.8021C15.4085 15.8021 14.5691 15.4547 13.95 14.836C13.3314 14.217 12.9839 13.3776 12.9839 12.5024C12.9839 11.6272 13.3314 10.7879 13.95 10.1688C14.5691 9.55017 15.4085 9.20267 16.2836 9.20267C17.1588 9.20267 17.9982 9.55017 18.6173 10.1688V10.1682Z" fill="#4C4C4D"></path>
    </g>
    <defs>
      <clipPath id="clip0_127_20">
        <rect width="49" height="24" fill="white" transform="translate(0.333984)"></rect>
      </clipPath>
    </defs>
  </symbol>
  <symbol fill="none" xmlns="http://www.w3.org/2000/svg" viewBox="0 0 71 24" id="spotify_logo">
    <g clip-path="url(#clip0_127_16)">
      <path d="M11.0383 1.53937C5.23931 1.53937 0.538086 6.24046 0.538086 12.0394C0.538086 17.8387 5.23931 22.5394 11.0383 22.5394C16.8379 22.5394 21.5386 17.8387 21.5386 12.0394C21.5386 6.24084 16.8379 1.53987 11.0382 1.53987L11.0383 1.53937ZM15.8536 16.6835C15.6655 16.9919 15.2618 17.0897 14.9533 16.9004C12.488 15.3945 9.38444 15.0535 5.72944 15.8885C5.37723 15.9688 5.02615 15.7481 4.9459 15.3958C4.86528 15.0434 5.08508 14.6923 5.43817 14.6121C9.43798 13.6983 12.8689 14.0917 15.6367 15.7832C15.9451 15.9725 16.0429 16.375 15.8536 16.6835ZM17.1388 13.8244C16.9018 14.2096 16.3978 14.3312 16.0128 14.0943C13.1904 12.3594 8.88804 11.857 5.54964 12.8704C5.11668 13.0011 4.6594 12.7571 4.52799 12.3249C4.39759 11.892 4.64172 11.4356 5.07392 11.3039C8.88729 10.1469 13.628 10.7073 16.8692 12.6991C17.2542 12.9361 17.3758 13.4401 17.1388 13.8245V13.8244ZM17.2491 10.8473C13.865 8.8372 8.28155 8.65238 5.05048 9.63303C4.53163 9.79039 3.98294 9.49748 3.82571 8.97864C3.66847 8.45954 3.96112 7.91123 4.48035 7.75349C8.18939 6.62753 14.3552 6.84507 18.2515 9.15806C18.7192 9.43504 18.8721 10.0378 18.595 10.5038C18.3192 10.9705 17.7148 11.1244 17.2497 10.8473H17.2491ZM29.1056 11.2324C27.2926 10.8001 26.9703 10.4967 26.9703 9.8591C26.9703 9.25674 27.5371 8.85137 28.3809 8.85137C29.1984 8.85137 30.0084 9.15919 30.8585 9.79289C30.8836 9.81208 30.9162 9.81973 30.9476 9.81471C30.9802 9.80995 31.0077 9.79252 31.0266 9.76631L31.9118 8.51847C31.9481 8.46706 31.9381 8.39622 31.8892 8.35697C30.8773 7.54535 29.7388 7.15076 28.4072 7.15076C26.45 7.15076 25.082 8.3255 25.082 10.0063C25.082 11.8087 26.2619 12.4469 28.3007 12.9396C30.0348 13.3392 30.3282 13.674 30.3282 14.2723C30.3282 14.9356 29.7363 15.3481 28.7834 15.3481C27.7251 15.3481 26.8612 14.9908 25.8958 14.1557C25.8719 14.1344 25.8393 14.1256 25.8092 14.1269C25.7766 14.1294 25.7478 14.1444 25.7277 14.1682L24.7347 15.3494C24.6933 15.3995 24.6983 15.4722 24.746 15.5149C25.8694 16.518 27.2512 17.0471 28.7433 17.0471C30.8523 17.0471 32.2152 15.8948 32.2152 14.1106C32.219 12.605 31.3175 11.7712 29.1094 11.2341L29.1056 11.2324ZM36.9874 9.44445C36.0733 9.44445 35.3235 9.80455 34.7041 10.5424V9.71189C34.7041 9.64632 34.6515 9.5929 34.5863 9.5929H32.9625C32.8973 9.5929 32.8447 9.64632 32.8447 9.71189V18.9404C32.8447 19.0056 32.8973 19.0595 32.9625 19.0595H34.5863C34.6515 19.0595 34.7041 19.0056 34.7041 18.9404V16.0277C35.3235 16.7211 36.0733 17.0609 36.9874 17.0609C38.6864 17.0609 40.4067 15.7531 40.4067 13.253C40.4092 10.7525 38.6889 9.44432 36.9887 9.44432L36.9874 9.44445ZM38.5184 13.253C38.5184 14.5256 37.7347 15.4146 36.6113 15.4146C35.5016 15.4146 34.664 14.4855 34.664 13.253C34.664 12.0205 35.5016 11.0916 36.6113 11.0916C37.7159 11.0915 38.5184 12.0003 38.5184 13.2529V13.253ZM44.814 9.44445C42.626 9.44445 40.912 11.1291 40.912 13.2802C40.912 15.4083 42.6147 17.0747 44.7877 17.0747C46.9832 17.0747 48.7022 15.3958 48.7022 13.253C48.7022 11.1176 46.9945 9.4447 44.814 9.4447V9.44445ZM44.814 15.4271C43.6504 15.4271 42.7727 14.4917 42.7727 13.2524C42.7727 12.0075 43.6203 11.1041 44.7877 11.1041C45.9588 11.1041 46.8415 12.0391 46.8415 13.2796C46.8415 14.5243 45.9889 15.4271 44.814 15.4271ZM53.3741 9.5929H51.5873V7.76653C51.5873 7.70108 51.5347 7.64767 51.4695 7.64767H49.8457C49.7805 7.64767 49.7266 7.70108 49.7266 7.76653V9.5929H48.9467C48.8815 9.5929 48.8289 9.64632 48.8289 9.71189V11.1071C48.8289 11.1725 48.8815 11.2261 48.9467 11.2261H49.7266V14.8365C49.7266 16.2948 50.4526 17.0346 51.8858 17.0346C52.4676 17.0346 52.9503 16.9142 53.4054 16.6559C53.4431 16.6358 53.4656 16.5957 53.4656 16.5531V15.224C53.4656 15.1839 53.4443 15.145 53.4092 15.1237C53.3741 15.1011 53.3302 15.0998 53.2938 15.1187C52.9816 15.2754 52.6795 15.3481 52.3409 15.3481C51.8206 15.3481 51.5873 15.1111 51.5873 14.582V11.2267H53.3741C53.4393 11.2267 53.492 11.1733 53.492 11.1077V9.71264C53.4945 9.64707 53.4418 9.59365 53.3754 9.59365L53.3741 9.5929ZM59.5983 9.60005V9.37573C59.5983 8.71583 59.8515 8.42155 60.4183 8.42155C60.7568 8.42155 61.0289 8.48875 61.3336 8.59032C61.3712 8.6021 61.4101 8.59621 61.4402 8.57377C61.4715 8.55132 61.4891 8.51534 61.4891 8.47722V7.10926C61.4891 7.05697 61.4565 7.01071 61.4051 6.99528C61.0841 6.89961 60.6728 6.80144 60.0559 6.80144C58.5576 6.80144 57.7639 7.64578 57.7639 9.24232V9.58588H56.984C56.9188 9.58588 56.8648 9.63929 56.8648 9.70475V11.1071C56.8648 11.1725 56.9188 11.2261 56.984 11.2261H57.7639V16.7938C57.7639 16.8603 57.8178 16.9129 57.883 16.9129H59.5055C59.5719 16.9129 59.6246 16.8603 59.6246 16.7938V11.2264H61.1405L63.4627 16.7938C63.1993 17.3781 62.9398 17.4947 62.5862 17.4947C62.3003 17.4947 61.9981 17.4095 61.6909 17.2402C61.6621 17.2251 61.627 17.2226 61.5969 17.2314C61.5656 17.2427 61.5392 17.2653 61.5267 17.2954L60.9762 18.5028C60.9499 18.5605 60.9725 18.627 61.0277 18.657C61.6019 18.968 62.1198 19.1009 62.7605 19.1009C63.9592 19.1009 64.6225 18.5417 65.2055 17.0396L68.0217 9.76255C68.0367 9.72594 68.0317 9.68456 68.0091 9.65208C67.9878 9.61986 67.9515 9.60042 67.9126 9.60042H66.2224C66.171 9.60042 66.1259 9.63265 66.1096 9.68017L64.378 14.6246L62.4821 9.67691C62.4646 9.63089 62.4207 9.60042 62.3718 9.60042H59.5983V9.60005ZM55.9897 9.5929H54.3659C54.3007 9.5929 54.2468 9.64632 54.2468 9.71189V16.7938C54.2468 16.8603 54.3007 16.9129 54.3659 16.9129H55.9897C56.0549 16.9129 56.1088 16.8603 56.1088 16.7938V9.71239C56.1088 9.64682 56.0561 9.5934 55.9897 9.5934V9.5929ZM55.1872 6.3681C54.5439 6.3681 54.0223 6.8887 54.0223 7.53181C54.0223 8.17529 54.5439 8.69652 55.1872 8.69652C55.8304 8.69652 56.3508 8.17529 56.3508 7.53181C56.3508 6.88883 55.8292 6.3681 55.1872 6.3681ZM69.4085 11.87C68.7665 11.87 68.2662 11.3541 68.2662 10.7275C68.2662 10.101 68.7728 9.57911 69.4147 9.57911C70.0567 9.57911 70.557 10.0949 70.557 10.721C70.557 11.3476 70.0504 11.87 69.4085 11.87ZM69.4147 9.69271C68.8292 9.69271 68.3866 10.1579 68.3866 10.7275C68.3866 11.2969 68.8267 11.7558 69.4085 11.7558C69.994 11.7558 70.4366 11.291 70.4366 10.721C70.4366 10.1516 69.9965 9.69271 69.4147 9.69271ZM69.668 10.8385L69.9915 11.2909H69.7182L69.4273 10.8758H69.1777V11.2909H68.9495V10.0917H69.4837C69.7633 10.0917 69.9464 10.2343 69.9464 10.4742C69.9476 10.6708 69.8335 10.791 69.6693 10.8385H69.668ZM69.4749 10.2974H69.1777V10.6767H69.4749C69.6229 10.6767 69.7119 10.6041 69.7119 10.4869C69.7119 10.3635 69.6229 10.2974 69.4749 10.2974Z" fill="#4C4C4D"></path>
    </g>
    <defs>
      <clipPath id="clip0_127_16">
        <rect width="70" height="24" fill="white" transform="translate(0.5)"></rect>
      </clipPath>
    </defs>
  </symbol>
  <symbol fill="none" xmlns="http://www.w3.org/2000/svg" viewBox="0 0 49 24" id="zapier_logo">
    <g clip-path="url(#clip0_127_12)">
      <path d="M0.167969 17.6975L5.09519 10.0306H0.751663C0.714853 9.80976 0.699078 9.56787 0.699078 9.29968C0.699078 9.04202 0.714853 8.80538 0.751663 8.58978H7.78228L7.87168 8.82642L2.90765 16.5091H7.56142C7.59823 16.751 7.61401 17.0034 7.61401 17.2558C7.61401 17.4977 7.59823 17.7291 7.56142 17.9499H0.257363L0.167969 17.6975Z" fill="#4C4C4D"></path>
      <path d="M14.387 11.7818C14.387 11.0614 14.203 10.5671 13.8401 10.2831C13.4773 10.0044 12.9462 9.86244 12.252 9.86244C11.8261 9.86244 11.4265 9.89399 11.0584 9.96235C10.685 10.0307 10.3274 10.1149 9.96985 10.2253C9.73848 9.82563 9.62279 9.34185 9.62279 8.78445C10.0382 8.65299 10.4904 8.54782 10.99 8.4742C11.4896 8.40058 11.9681 8.36377 12.4308 8.36377C13.6455 8.36377 14.571 8.64247 15.2073 9.19461C15.8383 9.74676 16.1591 10.6354 16.1591 11.8502V17.7081C15.7332 17.8028 15.2178 17.908 14.6079 18.0079C13.9979 18.113 13.3774 18.1604 12.7463 18.1604C12.1521 18.1604 11.6105 18.1078 11.132 17.9974C10.6535 17.8869 10.2433 17.7134 9.90675 17.4662C9.57021 17.2243 9.31254 16.9141 9.12849 16.5355C8.94445 16.1569 8.85505 15.6994 8.85505 15.1683C8.85505 14.6477 8.96022 14.1849 9.17582 13.7905C9.38616 13.3962 9.67538 13.0649 10.0435 12.8072C10.4063 12.5443 10.827 12.3497 11.3055 12.2235C11.7788 12.0973 12.2783 12.0289 12.8042 12.0289C13.1933 12.0289 13.5141 12.0395 13.7612 12.0552C14.0084 12.071 14.2187 12.0973 14.3923 12.1183V11.7818H14.387ZM14.387 13.5539C14.203 13.5276 13.9716 13.5066 13.6929 13.4803C13.4142 13.454 13.1775 13.4435 12.983 13.4435C12.2258 13.4435 11.6526 13.5855 11.2582 13.8642C10.8638 14.1429 10.664 14.5688 10.664 15.142C10.664 15.5048 10.7323 15.794 10.8638 15.9991C10.9953 16.2042 11.1635 16.362 11.3634 16.4724C11.5632 16.5828 11.784 16.6512 12.0312 16.6722C12.2731 16.6985 12.5045 16.709 12.7253 16.709C13.004 16.709 13.2932 16.6932 13.593 16.6617C13.8927 16.6301 14.1556 16.5881 14.387 16.525V13.5539Z" fill="#4C4C4D"></path>
      <path d="M18.131 8.59018C18.252 8.56389 18.3782 8.54811 18.5044 8.5376C18.6306 8.52708 18.762 8.52182 18.8988 8.52182C19.0197 8.52182 19.1459 8.52708 19.2826 8.5376C19.4141 8.54811 19.5455 8.56915 19.6665 8.59018C19.677 8.61647 19.6928 8.69009 19.7138 8.8163C19.7296 8.9425 19.7506 9.07922 19.7664 9.22646C19.7822 9.3737 19.8032 9.51042 19.819 9.64714C19.8348 9.78386 19.8453 9.868 19.8453 9.90481C19.9662 9.71024 20.1135 9.52094 20.2817 9.33689C20.45 9.15284 20.6551 8.98983 20.8917 8.84259C21.1284 8.69535 21.3965 8.57966 21.6963 8.49553C21.996 8.41139 22.3273 8.36932 22.6901 8.36932C23.237 8.36932 23.7471 8.45872 24.2151 8.64277C24.6831 8.82681 25.0828 9.10551 25.4193 9.48938C25.7558 9.87326 26.0135 10.3623 26.2028 10.9513C26.3921 11.5402 26.4868 12.2396 26.4868 13.0441C26.4868 14.6532 26.0503 15.91 25.1827 16.8145C24.3098 17.7189 23.0793 18.1764 21.4859 18.1764C21.2178 18.1764 20.9443 18.1607 20.6656 18.1239C20.3869 18.087 20.1398 18.0397 19.9347 17.9766V22.2676C19.7874 22.2938 19.6349 22.3096 19.4667 22.3201C19.3037 22.3307 19.1512 22.3359 19.0197 22.3359C18.8882 22.3359 18.7357 22.3307 18.5727 22.3201C18.4097 22.3096 18.2572 22.2886 18.1258 22.2676V8.59018H18.131ZM19.9399 16.4201C20.1713 16.5042 20.4079 16.5673 20.6498 16.6041C20.8917 16.641 21.2072 16.6567 21.6016 16.6567C22.0381 16.6567 22.443 16.5884 22.8058 16.4464C23.1687 16.3044 23.4842 16.0888 23.7471 15.7996C24.01 15.5051 24.2151 15.137 24.3676 14.6953C24.5201 14.2536 24.5937 13.7225 24.5937 13.1178C24.5937 12.1449 24.4149 11.3719 24.0573 10.7988C23.6998 10.2256 23.1108 9.94162 22.2957 9.94162C21.9908 9.94162 21.7015 9.9942 21.4176 10.1046C21.1389 10.2151 20.8865 10.3781 20.6709 10.5989C20.45 10.8198 20.2765 11.0932 20.1398 11.4298C20.003 11.7663 19.9399 12.1607 19.9399 12.6235V16.4201Z" fill="#4C4C4D"></path>
      <path d="M28.7374 10.0096H27.549C27.5227 9.90967 27.5069 9.79924 27.4964 9.67304C27.4859 9.54683 27.4806 9.42063 27.4806 9.29968C27.4806 9.17874 27.4859 9.05253 27.4964 8.92633C27.5069 8.80012 27.5279 8.68444 27.549 8.58978H30.5095V17.9552C30.3781 17.9815 30.2256 17.9972 30.0625 18.0078C29.8995 18.0183 29.747 18.0235 29.6156 18.0235C29.4946 18.0235 29.3526 18.0183 29.1844 18.0078C29.0214 17.9972 28.8689 17.9762 28.7374 17.9552V10.0096Z" fill="#4C4C4D"></path>
      <path d="M34.3955 13.7171C34.4218 14.7372 34.6848 15.4892 35.1896 15.9624C35.6944 16.4357 36.4411 16.6723 37.4244 16.6723C38.2868 16.6723 39.1124 16.5198 39.8907 16.2149C39.9906 16.3989 40.0695 16.6198 40.1273 16.8827C40.1904 17.1456 40.222 17.4033 40.2377 17.6609C39.8381 17.8292 39.3964 17.9607 38.9126 18.0448C38.4341 18.1289 37.8977 18.171 37.314 18.171C36.4621 18.171 35.7312 18.0501 35.1212 17.8134C34.5112 17.5768 34.0117 17.2403 33.6173 16.8091C33.2229 16.3779 32.9337 15.8678 32.7496 15.2736C32.5656 14.6846 32.4762 14.0378 32.4762 13.3279C32.4762 12.6338 32.5656 11.987 32.7391 11.3823C32.9126 10.7776 33.1861 10.257 33.5489 9.80999C33.9118 9.36828 34.3745 9.0107 34.9267 8.75303C35.4788 8.49011 36.1361 8.35864 36.8881 8.35864C37.5349 8.35864 38.0975 8.46907 38.5866 8.68993C39.0756 8.91079 39.4805 9.21052 39.8118 9.59439C40.1378 9.97826 40.3902 10.4358 40.5585 10.9616C40.7268 11.4927 40.8162 12.0659 40.8162 12.6864C40.8162 12.8547 40.8109 13.0387 40.7951 13.2228C40.7846 13.4121 40.7689 13.5751 40.7583 13.7065H34.3955V13.7171ZM39.0335 12.3656C39.0335 12.0238 38.9862 11.6978 38.8968 11.3875C38.8074 11.0773 38.6707 10.8091 38.4972 10.5777C38.3184 10.3464 38.0975 10.1623 37.8241 10.0203C37.5506 9.87835 37.2246 9.80999 36.846 9.80999C36.1046 9.80999 35.5366 10.0361 35.137 10.4831C34.7426 10.9353 34.5007 11.5611 34.4166 12.3656H39.0335Z" fill="#4C4C4D"></path>
      <path d="M42.8144 8.58978C42.9459 8.56349 43.0774 8.54772 43.1983 8.5372C43.3193 8.52668 43.4455 8.52142 43.5822 8.52142C43.7136 8.52142 43.8504 8.52668 43.9818 8.5372C44.1133 8.54772 44.2395 8.56875 44.3447 8.58978C44.3815 8.77383 44.4183 9.01046 44.4551 9.3102C44.4919 9.60993 44.5077 9.86234 44.5077 10.0674C44.7654 9.652 45.1019 9.29442 45.5226 8.98943C45.9433 8.68444 46.4796 8.53194 47.1369 8.53194C47.2368 8.53194 47.3368 8.5372 47.4367 8.54246C47.5418 8.54772 47.626 8.55823 47.6996 8.56875C47.7259 8.67918 47.7417 8.79487 47.7522 8.91581C47.7627 9.03676 47.768 9.16296 47.768 9.29968C47.768 9.44692 47.7574 9.59942 47.7417 9.75717C47.7259 9.91493 47.6996 10.0674 47.6786 10.2147C47.5786 10.1884 47.4787 10.1779 47.3788 10.1779C47.2737 10.1779 47.1948 10.1779 47.1317 10.1779C46.8056 10.1779 46.4901 10.2252 46.1904 10.3146C45.8907 10.404 45.6225 10.567 45.3859 10.7984C45.1492 11.0297 44.9599 11.3452 44.8179 11.7501C44.676 12.1498 44.6076 12.6704 44.6076 13.3014V17.9552C44.4761 17.9815 44.3236 17.9973 44.1606 18.0078C43.9976 18.0183 43.8451 18.0235 43.7136 18.0235C43.5822 18.0235 43.4297 18.0183 43.2667 18.0078C43.1037 17.9973 42.9459 17.9762 42.7987 17.9552V8.58978H42.8144Z" fill="#4C4C4D"></path>
      <path d="M32.229 3.07908H30.4621L31.7136 1.82755C31.6137 1.69083 31.5033 1.55937 31.3876 1.43842C31.2667 1.31748 31.1405 1.20705 30.9985 1.11239L29.747 2.36392V0.597061C29.584 0.570768 29.4157 0.554993 29.2421 0.554993H29.2369C29.0634 0.554993 28.8951 0.570768 28.7321 0.597061V2.36392L27.4806 1.11239C27.3438 1.21231 27.2124 1.32273 27.0914 1.43842C26.9705 1.55937 26.8653 1.68557 26.7654 1.82755L28.0222 3.07908H26.2553C26.2553 3.07908 26.2132 3.41036 26.2132 3.58389C26.2132 3.75742 26.229 3.92569 26.2553 4.08871H28.0222L26.7707 5.34023C26.9652 5.61367 27.2071 5.85557 27.4858 6.05539L28.7373 4.80387V6.57072C28.9003 6.59702 29.0686 6.61279 29.2421 6.61279H29.2474C29.4209 6.61279 29.5892 6.59702 29.7522 6.57072V4.80387L31.0037 6.05539C31.1405 5.95548 31.2719 5.84505 31.3929 5.72936C31.5138 5.60842 31.6243 5.48221 31.7189 5.34023L30.4674 4.08871H32.2342C32.2605 3.92569 32.2763 3.75742 32.2763 3.58389V3.57863C32.271 3.41036 32.2605 3.24209 32.229 3.07908ZM29.9994 3.58915C29.9994 3.81527 29.9573 4.03086 29.8837 4.23069C29.6839 4.30431 29.4683 4.34638 29.2421 4.34638C29.016 4.34638 28.8004 4.30431 28.6006 4.23069C28.527 4.03086 28.4849 3.81527 28.4849 3.58915V3.58389C28.4849 3.35778 28.527 3.14218 28.6006 2.94235C28.8004 2.86874 29.016 2.82667 29.2421 2.82667C29.4683 2.82667 29.6839 2.86874 29.8837 2.94235C29.9573 3.14218 29.9994 3.35778 29.9994 3.58915Z" fill="#4C4C4D"></path>
    </g>
    <defs>
      <clipPath id="clip0_127_12">
        <rect width="48" height="24" fill="white" transform="translate(0.166992)"></rect>
      </clipPath>
    </defs>
  </symbol>
  <symbol fill="none" xmlns="http://www.w3.org/2000/svg" viewBox="0 0 40 40" id="main_logo">
    <rect y="0.5" width="40" height="40" rx="6" fill="#FF9500"></rect>
    <path d="M8.27246 32.8457L16.2972 24.821H24.3218V16.7963L32.3465 24.821L24.3218 32.8457H8.27246Z" fill="white"></path>
    <path d="M8.27246 16.7963L16.2972 24.821V16.7963H24.3218L32.3465 8.77161H16.2972L8.27246 16.7963Z" fill="white"></path>
  </symbol>
  <symbol fill="none" xmlns="http://www.w3.org/2000/svg" viewBox="0 0 14 14" id="diagonal-arrow">
    <path fill-rule="evenodd" clip-rule="evenodd" d="M0.785571 13.2144C1.16633 13.5952 1.78367 13.5952 2.16443 13.2144L11.55 3.82886V11.225C11.55 11.7635 11.9865 12.2 12.525 12.2C13.0635 12.2 13.5 11.7635 13.5 11.225V1.475C13.5 0.936523 13.0635 0.5 12.525 0.5H2.775C2.23652 0.5 1.8 0.936523 1.8 1.475C1.8 2.01348 2.23652 2.45 2.775 2.45H10.1711L0.785571 11.8356C0.40481 12.2163 0.40481 12.8337 0.785571 13.2144Z" fill="#FF9500"></path>
  </symbol>
  <symbol fill="none" xmlns="http://www.w3.org/2000/svg" viewBox="0 0 66 28" id="netflix_logo">
    <g clip-path="url(#clip0_109_85)">
      <path d="M9.60008 22.2039C8.62599 22.3749 7.63477 22.4262 6.60941 22.5628L3.48189 13.4027V22.9559C2.5078 23.0584 1.61915 23.1952 0.696289 23.3319V5.83188H3.29402L6.84863 15.7612V5.83188H9.60008V22.2039ZM14.9834 12.2406C16.043 12.2406 17.6666 12.1893 18.6406 12.1893V14.9236C17.4272 14.9236 16.0088 14.9236 14.9834 14.9749V19.0423C16.5899 18.9398 18.1964 18.803 19.8198 18.7517V21.3834L12.249 21.9817V5.83188H19.8198V8.56626H14.9834V12.2406ZM29.9882 8.56632H27.1514V21.1444C26.2285 21.1444 25.3056 21.1444 24.4171 21.1785V8.56632H21.5802V5.83188H29.9884L29.9882 8.56632ZM34.4316 12.0526H38.1743V14.787H34.4316V20.9906H31.7483V5.83188H39.3877V8.56626H34.4316V12.0526ZM43.831 18.598C45.3862 18.6321 46.9584 18.7519 48.4795 18.8372V21.5374C46.0357 21.3835 43.5918 21.2299 41.0967 21.1785V5.83188H43.831V18.598ZM50.7866 21.7254C51.6581 21.7768 52.581 21.8281 53.4697 21.9304V5.83188H50.7866V21.7254ZM65.4497 5.83188L61.9804 14.1547L65.4497 23.3319C64.4243 23.1952 63.3989 23.0072 62.3735 22.8362L60.4082 17.7778L58.4089 22.4262C57.4175 22.2552 56.4605 22.2039 55.4694 22.0672L58.9899 14.052L55.8111 5.83188H58.7504L60.5449 10.4291L62.459 5.83188H65.4497V5.83188Z" fill="#4C4C4D"></path>
    </g>
    <defs>
      <clipPath id="clip0_109_85">
        <rect width="64.75" height="28" fill="white" transform="translate(0.696289)"></rect>
      </clipPath>
    </defs>
  </symbol>
  <symbol fill="none" xmlns="http://www.w3.org/2000/svg" viewBox="0 0 76 28" id="notion_logo">
    <g clip-path="url(#clip0_109_81)">
      <path d="M26.8023 20.2851V11.7946H26.9536L33.1338 20.2851H35.0786V7.81675H32.9177V16.2858H32.7664L26.5862 7.81675H24.6414V20.2851H26.8023ZM41.194 20.4776C44.0464 20.4776 45.7968 18.6383 45.7968 15.5587C45.7968 12.5004 44.0464 10.6398 41.194 10.6398C38.3632 10.6398 36.5912 12.5004 36.5912 15.5587C36.6129 18.6383 38.3416 20.4776 41.194 20.4776ZM41.194 18.6811C39.6814 18.6811 38.817 17.5476 38.817 15.5587C38.817 13.5911 39.6814 12.4362 41.194 12.4362C42.7066 12.4362 43.571 13.5911 43.571 15.5587C43.571 17.5476 42.7066 18.6811 41.194 18.6811ZM47.7632 8.52251V10.8964H46.2505V12.6073H47.7632V17.7615C47.7632 19.6007 48.6276 20.3279 50.8317 20.3279C51.2423 20.3279 51.6528 20.2851 51.977 20.2209V18.5528C51.7177 18.5742 51.5448 18.5956 51.2423 18.5956C50.3347 18.5956 49.9241 18.1892 49.9241 17.2482V12.6073H51.977V10.8964H49.9241V8.52251H47.7632ZM53.2735 20.2851H55.4344V10.8323H53.2735V20.2851ZM54.354 9.27103C55.0671 9.27103 55.6505 8.6936 55.6505 7.98784C55.6505 7.2607 55.0671 6.68327 54.354 6.68327C53.6409 6.68327 53.0574 7.2607 53.0574 7.98784C53.0574 8.6936 53.6409 9.27103 54.354 9.27103ZM61.3554 20.4776C64.2078 20.4776 65.9581 18.6383 65.9581 15.5587C65.9581 12.5004 64.2078 10.6398 61.3554 10.6398C58.5246 10.6398 56.7526 12.5004 56.7526 15.5587C56.7526 18.6383 58.4813 20.4776 61.3554 20.4776ZM61.3554 18.6811C59.8427 18.6811 58.9783 17.5476 58.9783 15.5587C58.9783 13.5911 59.8427 12.4362 61.3554 12.4362C62.8464 12.4362 63.7324 13.5911 63.7324 15.5587C63.7108 17.5476 62.8464 18.6811 61.3554 18.6811ZM67.233 20.2851H69.394V14.7888C69.394 13.3986 70.2151 12.5218 71.4901 12.5218C72.8082 12.5218 73.4133 13.2489 73.4133 14.6818V20.2851H75.5742V14.1685C75.5742 11.9016 74.4073 10.6398 72.2896 10.6398C70.8634 10.6398 69.9126 11.2814 69.4588 12.3507H69.3075V10.8323H67.2114C67.2331 10.8323 67.233 20.2851 67.233 20.2851Z" fill="#4C4C4D"></path>
      <path fill-rule="evenodd" clip-rule="evenodd" d="M3.92188 7.01872C4.55081 7.52611 4.7783 7.48605 5.95589 7.40594L17.0493 6.73833C17.2901 6.73833 17.0894 6.49799 17.0091 6.47128L15.1625 5.14942C14.8145 4.88238 14.3328 4.56192 13.4362 4.64204L2.70415 5.42981C2.31608 5.46987 2.23579 5.67015 2.39637 5.81703L3.92188 7.01872ZM4.59096 9.59569V21.2388C4.59096 21.8663 4.89874 22.0933 5.60797 22.0533L17.7987 21.3456C18.5079 21.3056 18.5882 20.8783 18.5882 20.3709V8.80792C18.5882 8.30053 18.3874 8.02014 17.9592 8.06019L5.2199 8.80792C4.75154 8.84797 4.59096 9.08831 4.59096 9.59569ZM16.6211 10.2232C16.7014 10.5704 16.6211 10.9309 16.2731 10.971L15.6844 11.0911V19.6899C15.1758 19.957 14.7075 20.1172 14.306 20.1172C13.6771 20.1172 13.5165 19.9169 13.0482 19.3294L9.20763 13.3076V19.1291L10.4254 19.3962C10.4254 19.3962 10.4254 20.1039 9.4485 20.1039L6.74541 20.2641C6.66512 20.1039 6.74541 19.7166 7.01304 19.6365L7.72227 19.4362V11.7454L6.74541 11.6653C6.66512 11.3181 6.86584 10.8107 7.41449 10.7707L10.3183 10.5704L14.3194 16.659V11.2781L13.3024 11.1579C13.2221 10.7306 13.5433 10.4102 13.9314 10.3701L16.6211 10.2232ZM1.80757 4.36164L12.9813 3.54716C14.3462 3.42699 14.7075 3.5071 15.5639 4.13465L19.1234 6.63151C19.7122 7.05878 19.913 7.17895 19.913 7.64628V21.359C19.913 22.2135 19.6052 22.7209 18.5079 22.801L5.54106 23.5888C4.71139 23.6288 4.32333 23.5087 3.89511 22.9612L1.25893 19.5564C0.790569 18.9289 0.589844 18.4615 0.589844 17.9141V5.72356C0.589844 5.0159 0.911003 4.44175 1.80757 4.36164Z" fill="#4C4C4D"></path>
    </g>
    <defs>
      <clipPath id="clip0_109_81">
        <rect width="75.25" height="28" fill="white" transform="translate(0.589844)"></rect>
      </clipPath>
    </defs>
  </symbol>
  <symbol fill="none" xmlns="http://www.w3.org/2000/svg" viewBox="0 0 79 28" id="adobe_logo">
    <g clip-path="url(#clip0_109_70)">
      <path d="M9.1025 3.5H0.56543V23.9167L9.1025 3.5Z" fill="#4C4C4D"></path>
      <path d="M15.1094 3.5H23.6353V23.9167L15.1094 3.5Z" fill="#4C4C4D"></path>
      <path d="M12.1059 11.025L17.5396 23.9168H13.9746L12.3506 19.8124H8.37402L12.1059 11.025Z" fill="#4C4C4D"></path>
      <path d="M37.5634 16.4827L38.5701 19.3691C38.6034 19.4414 38.6535 19.4748 38.7425 19.4748H40.6779C40.7836 19.4748 40.8003 19.4247 40.7836 19.3191L36.7848 8.21254C36.7681 8.12356 36.7514 8.10687 36.6624 8.10687H34.2598C34.1931 8.10687 34.1541 8.15693 34.1541 8.22923C34.1208 8.8132 34.0707 8.99117 33.9984 9.16358L30.4334 19.3024C30.4167 19.4248 30.4557 19.4748 30.5558 19.4748H32.2854C32.3911 19.4748 32.4412 19.4414 32.4801 19.3358L33.4311 16.4827H37.5634ZM33.9817 14.5973C34.5045 13.0178 35.1942 10.9933 35.4722 9.83653H35.4889C35.8338 11.049 36.6457 13.4516 37.0128 14.5973H33.9817Z" fill="#4C4C4D"></path>
      <path d="M45.9241 19.6467C46.9641 19.6467 48.0709 19.4576 49.1943 18.9738C49.2833 18.9404 49.3 18.9015 49.3 18.818C49.2666 18.5066 49.2277 18.0561 49.2277 17.7113V7.25544C49.2277 7.1887 49.2277 7.15533 49.1443 7.15533H47.2589C47.1866 7.15533 47.1532 7.1887 47.1532 7.27769V10.8204C46.8585 10.7871 46.6527 10.7704 46.408 10.7704C43.3658 10.7704 41.4971 12.7781 41.4971 15.2864C41.4971 18.1951 43.4158 19.6467 45.9241 19.6467ZM47.1532 17.7113C46.8418 17.8114 46.497 17.8503 46.1466 17.8503C44.7673 17.8503 43.6383 17.0717 43.6383 15.1807C43.6383 13.5067 44.8007 12.5167 46.3412 12.5167C46.6527 12.5167 46.9252 12.5501 47.1532 12.6391V17.7113Z" fill="#4C4C4D"></path>
      <path d="M55.314 10.7712C52.7167 10.7712 51.1094 12.7623 51.1094 15.2205C51.1094 17.4174 52.3885 19.6476 55.275 19.6476C57.7166 19.6476 59.4295 17.8512 59.4295 15.1649C59.4295 12.7957 57.978 10.7712 55.314 10.7712ZM55.2083 12.5176C56.6765 12.5176 57.2994 13.7801 57.2994 15.2205C57.2994 17.0002 56.3818 17.8845 55.314 17.8845C53.9958 17.8845 53.2172 16.7778 53.2172 15.1816C53.2172 13.5409 54.0459 12.5176 55.2083 12.5176Z" fill="#4C4C4D"></path>
      <path d="M61.3792 7.15533C61.3069 7.15533 61.2568 7.1887 61.2568 7.27769V19.1128C61.2568 19.1629 61.3069 19.2518 61.3792 19.2685C62.2079 19.5244 63.0755 19.6467 63.9709 19.6467C66.5348 19.6467 69.0264 18.0561 69.0264 14.8526C69.0264 12.5334 67.4358 10.7704 64.9442 10.7704C64.3713 10.7704 63.8374 10.8594 63.3702 11.0151L63.348 7.29437C63.348 7.17202 63.3146 7.15533 63.1923 7.15533H61.3792ZM66.8963 15.0639C66.8963 16.9827 65.5838 17.8837 64.1656 17.8837C63.8708 17.8837 63.6094 17.867 63.3702 17.7947V12.7448C63.6428 12.6391 63.9709 12.5501 64.5771 12.5501C65.9453 12.5501 66.8963 13.4177 66.8963 15.0639Z" fill="#4C4C4D"></path>
      <path d="M76.0632 15.6877C76.9086 15.6877 77.6038 15.671 77.8429 15.6154C77.9319 15.5987 77.9653 15.5653 77.982 15.493C78.032 15.304 78.0543 14.9091 78.0543 14.4252C78.0543 12.779 77.0643 10.7712 74.506 10.7712C71.892 10.7712 70.4404 12.9013 70.4404 15.304C70.4404 17.434 71.5639 19.6476 74.7117 19.6476C75.8908 19.6476 76.6527 19.4585 77.309 19.147C77.3757 19.1137 77.4091 19.058 77.4091 18.9579V17.5175C77.4091 17.434 77.3591 17.4174 77.309 17.4507C76.6527 17.7288 75.9409 17.8679 75.1622 17.8679C73.3992 17.8679 72.5983 16.8946 72.5483 15.6877H76.0632ZM72.5483 14.1972C72.6873 13.3518 73.2212 12.4342 74.417 12.4342C75.7351 12.4342 76.0799 13.5409 76.0799 14.0415C76.0799 14.0582 76.0799 14.1305 76.0799 14.1805C76.0076 14.1972 75.7851 14.1972 75.1289 14.1972H72.5483Z" fill="#4C4C4D"></path>
    </g>
    <defs>
      <clipPath id="clip0_109_70">
        <rect width="77.5833" height="28" fill="white" transform="translate(0.56543)"></rect>
      </clipPath>
    </defs>
  </symbol>
  <symbol fill="none" xmlns="http://www.w3.org/2000/svg" viewBox="0 0 65 28" id="amazon_logo">
    <g clip-path="url(#clip0_109_65)">
      <path fill-rule="evenodd" clip-rule="evenodd" d="M40.0441 22.0535C36.332 24.7896 30.9515 26.2494 26.3191 26.2494C19.8237 26.2494 13.9761 23.847 9.55218 19.8513C9.2046 19.5371 9.51603 19.1089 9.93312 19.3535C14.7074 22.1313 20.6106 23.8025 26.7084 23.8025C30.8209 23.8025 35.3449 22.9516 39.5046 21.1859C40.133 20.919 40.6586 21.5975 40.0441 22.0535Z" fill="#4C4C4D"></path>
      <path fill-rule="evenodd" clip-rule="evenodd" d="M41.5873 20.2878C41.1146 19.6817 38.4508 20.0014 37.2552 20.1433C36.8909 20.1877 36.8353 19.8708 37.1634 19.6427C39.285 18.1496 42.7663 18.5806 43.1722 19.0811C43.5782 19.5844 43.0666 23.074 41.0729 24.7396C40.767 24.9954 40.4751 24.8591 40.6113 24.5199C41.059 23.4021 42.0628 20.8968 41.5873 20.2878Z" fill="#4C4C4D"></path>
      <path fill-rule="evenodd" clip-rule="evenodd" d="M37.3394 9.10212V7.65066C37.3394 7.43099 37.5063 7.28362 37.7065 7.28362H44.2047C44.4132 7.28362 44.5801 7.43377 44.5801 7.65066V8.89358C44.5773 9.10212 44.4021 9.37462 44.0907 9.80561L40.7234 14.6132C41.9747 14.5827 43.2954 14.769 44.4299 15.4085C44.6857 15.5531 44.7553 15.7644 44.7747 15.9729V17.5217C44.7747 17.7331 44.5411 17.9805 44.2965 17.8526C42.2972 16.8043 39.6418 16.6903 37.4312 17.8637C37.206 17.9861 36.9696 17.7414 36.9696 17.5301V16.0591C36.9696 15.8228 36.9724 15.4196 37.2087 15.0609L41.1099 9.46638H37.7148C37.5063 9.46638 37.3394 9.31901 37.3394 9.10212Z" fill="#4C4C4D"></path>
      <path fill-rule="evenodd" clip-rule="evenodd" d="M13.6349 18.1585H11.6579C11.4689 18.1446 11.3187 18.0028 11.3048 17.8221V7.6757C11.3048 7.47272 11.4744 7.31145 11.6857 7.31145H13.5293C13.7211 7.31978 13.8741 7.46716 13.888 7.65068V8.97702H13.9241C14.4052 7.69517 15.3088 7.09734 16.5267 7.09734C17.7641 7.09734 18.5371 7.69517 19.0932 8.97702C19.5715 7.69517 20.6587 7.09734 21.8238 7.09734C22.6524 7.09734 23.5588 7.43935 24.1122 8.20679C24.7378 9.06043 24.6099 10.3006 24.6099 11.3878L24.6071 17.7915C24.6071 17.9944 24.4375 18.1585 24.2262 18.1585H22.252C22.0545 18.1446 21.8961 17.9861 21.8961 17.7915V12.4138C21.8961 11.9856 21.935 10.9179 21.8404 10.5119C21.6931 9.83066 21.251 9.63879 20.6782 9.63879C20.1999 9.63879 19.6994 9.95856 19.4964 10.4702C19.2934 10.9818 19.3129 11.8382 19.3129 12.4138V17.7915C19.3129 17.9944 19.1433 18.1585 18.932 18.1585H16.9577C16.7575 18.1446 16.6018 17.9861 16.6018 17.7915L16.599 12.4138C16.599 11.2821 16.7853 9.61655 15.3811 9.61655C13.9603 9.61655 14.0159 11.2404 14.0159 12.4138V17.7915C14.0159 17.9944 13.8463 18.1585 13.6349 18.1585Z" fill="#4C4C4D"></path>
      <path fill-rule="evenodd" clip-rule="evenodd" d="M50.1745 7.09734C53.1081 7.09734 54.6958 9.61655 54.6958 12.8198C54.6958 15.9146 52.9412 18.3698 50.1745 18.3698C47.2938 18.3698 45.7256 15.8506 45.7256 12.7113C45.7256 9.5526 47.3133 7.09734 50.1745 7.09734ZM50.1912 9.16888C48.7342 9.16888 48.6424 11.1542 48.6424 12.3916C48.6424 13.6317 48.623 16.2788 50.1745 16.2788C51.7066 16.2788 51.7789 14.1433 51.7789 12.842C51.7789 11.9856 51.7428 10.9624 51.4842 10.1504C51.2617 9.44415 50.8196 9.16888 50.1912 9.16888Z" fill="#4C4C4D"></path>
      <path fill-rule="evenodd" clip-rule="evenodd" d="M58.4997 18.1585H56.531C56.3336 18.1446 56.1751 17.9861 56.1751 17.7915L56.1723 7.64234C56.189 7.45604 56.3531 7.31145 56.5533 7.31145H58.3857C58.5581 7.31978 58.6999 7.43657 58.7388 7.59507V9.14663H58.775C59.3283 7.75912 60.1041 7.09734 61.4693 7.09734C62.3563 7.09734 63.2211 7.41711 63.7772 8.29299C64.2944 9.10492 64.2944 10.4702 64.2944 11.4517V17.8387C64.2722 18.0167 64.1081 18.1585 63.9135 18.1585H61.9309C61.7502 18.1446 61.6 18.0111 61.5806 17.8387V12.3276C61.5806 11.2182 61.7085 9.5943 60.3432 9.5943C59.8622 9.5943 59.4201 9.91685 59.2004 10.4062C58.9223 11.0263 58.8862 11.6436 58.8862 12.3276V17.7915C58.8834 17.9944 58.711 18.1585 58.4997 18.1585Z" fill="#4C4C4D"></path>
      <path fill-rule="evenodd" clip-rule="evenodd" d="M32.1592 13.3119C32.1592 14.0821 32.1787 14.7245 31.7894 15.4085C31.4752 15.9646 30.9747 16.3066 30.4214 16.3066C29.6623 16.3066 29.2174 15.7283 29.2174 14.8746C29.2174 13.1896 30.7272 12.8837 32.1592 12.8837V13.3119ZM34.1529 18.1307C34.0222 18.2475 33.8331 18.2558 33.6858 18.178C33.0295 17.633 32.91 17.3799 32.5513 16.86C31.4669 17.9666 30.6966 18.2975 29.2924 18.2975C27.6269 18.2975 26.3339 17.2715 26.3339 15.2166C26.3339 13.6122 27.2014 12.5195 28.4416 11.9856C29.5149 11.5129 31.0136 11.4295 32.1592 11.2988V11.043C32.1592 10.5731 32.1954 10.0169 31.9173 9.61097C31.6782 9.24671 31.2166 9.09656 30.8079 9.09656C30.0543 9.09656 29.3842 9.48306 29.2201 10.2839C29.1868 10.4618 29.0561 10.637 28.8754 10.6453L26.9595 10.4396C26.7983 10.4034 26.6175 10.2727 26.6648 10.0253C27.1041 7.70071 29.2062 7 31.0859 7C32.048 7 33.3048 7.25581 34.0639 7.98433C35.026 8.88246 34.9342 10.0809 34.9342 11.385V14.4659C34.9342 15.3918 35.318 15.7978 35.6794 16.2983C35.8046 16.4762 35.8324 16.6903 35.6711 16.8238C35.2679 17.1603 34.5505 17.7859 34.1557 18.1362L34.1529 18.1307Z" fill="#4C4C4D"></path>
      <path fill-rule="evenodd" clip-rule="evenodd" d="M6.24134 13.3119C6.24134 14.0821 6.2608 14.7245 5.87152 15.4085C5.55731 15.9646 5.05959 16.3066 4.50347 16.3066C3.74437 16.3066 3.30226 15.7282 3.30226 14.8746C3.30226 13.1896 4.81212 12.8837 6.24134 12.8837V13.3119ZM8.23501 18.1307C8.10433 18.2475 7.91525 18.2558 7.76787 18.1779C7.11166 17.633 6.99487 17.3799 6.6334 16.8599C5.54897 17.9666 4.78153 18.2975 3.37455 18.2975C1.71177 18.2975 0.416016 17.2715 0.416016 15.2166C0.416016 13.6122 1.28634 12.5195 2.5237 11.9856C3.597 11.5129 5.09574 11.4295 6.24134 11.2988V11.043C6.24134 10.573 6.27748 10.0169 6.00221 9.61097C5.76029 9.24671 5.29872 9.09656 4.89275 9.09656C4.13922 9.09656 3.46631 9.48306 3.30226 10.2839C3.26889 10.4618 3.13821 10.637 2.96025 10.6453L1.04165 10.4396C0.880373 10.4034 0.702415 10.2727 0.746904 10.0253C1.18902 7.70071 3.28836 7 5.16803 7C6.13011 7 7.38693 7.25581 8.14603 7.98433C9.10812 8.88245 9.01636 10.0809 9.01636 11.385V14.4659C9.01636 15.3918 9.40008 15.7978 9.76155 16.2983C9.88946 16.4762 9.91727 16.6903 9.75599 16.8238C9.35281 17.1603 8.63542 17.7859 8.24057 18.1362L8.23501 18.1307Z" fill="#4C4C4D"></path>
    </g>
    <defs>
      <clipPath id="clip0_109_65">
        <rect width="64.1666" height="28" fill="white" transform="translate(0.416992)"></rect>
      </clipPath>
    </defs>
  </symbol>
</svg>