<svg xmlns="http://www.w3.org/2000/svg" xmlns:xlink="http://www.w3.org/1999/xlink" version="1.1" x="0px" y="0px" viewBox="0 0 24 30" style="enable-background:new 0 0 24 24;" xml:space="preserve"><path d="M12,2c5.5,0,10,4.5,10,10c0,5.5-4.5,10-10,10C6.5,22,2,17.5,2,12C2,6.5,6.5,2,12,2z M12,4c-4.4,0-8,3.6-8,8c0,4.4,3.6,8,8,8  c4.4,0,8-3.6,8-8C20,7.6,16.4,4,12,4z M8.8,15.3L8,16.7c-0.2,0.4-0.7,0.5-1.1,0.3c-0.4-0.2-0.5-0.7-0.3-1.1l0.6-1  C7.9,14.7,8.4,14.8,8.8,15.3z M13.2,8.7l2.4,4.2h2.1c0.5,0,0.8,0.4,0.8,0.8c0,0.5-0.4,0.8-0.8,0.8h-1.2l0.8,1.4  c0.2,0.4,0.1,0.9-0.3,1.1c-0.4,0.2-0.9,0.1-1.1-0.3l-3-5.3C12.2,10.3,12.7,9.1,13.2,8.7z M13.5,5.6c0.4,0.2,0.5,0.7,0.3,1.1  l-3.5,6.1h2.6c0.8,0,1.3,1,0.9,1.6H6.3c-0.5,0-0.8-0.4-0.8-0.8c0-0.5,0.4-0.8,0.8-0.8h2.1L11,8.2l-0.8-1.5c-0.2-0.4-0.1-0.9,0.3-1.1  c0.4-0.2,0.9-0.1,1.1,0.3L12,6.6l0.4-0.6C12.6,5.5,13.1,5.4,13.5,5.6z" fill="#00DA71"/></svg>