<svg xmlns="http://www.w3.org/2000/svg" version="1.1" viewBox="-5.0 -10.0 110.0 135.0">
 <path d="m43.48 83.82v4.8633c0 0.72656-0.58984 1.3164-1.3164 1.3164-0.72656 0-1.3164-0.58984-1.3164-1.3164v-4.8633c0-0.72656 0.58984-1.3164 1.3164-1.3164 0.72656 0 1.3164 0.58984 1.3164 1.3164zm14.363-1.3164c-0.72656 0-1.3164 0.58984-1.3164 1.3164v4.8633c0 0.72656 0.58984 1.3164 1.3164 1.3164s1.3164-0.58984 1.3164-1.3164v-4.8633c0-0.72656-0.58984-1.3164-1.3164-1.3164zm27.875 1.1016v5.0781c0 0.72656-0.58984 1.3164-1.3164 1.3164-0.72656 0-1.3164-0.58984-1.3164-1.3164v-5.0781c0-2.2266-1.9961-4.0352-4.4492-4.0352h-8.3555c-2.4531 0-4.4492 1.8086-4.4492 4.0352v5.0781c0 0.72656-0.58984 1.3164-1.3164 1.3164s-1.3164-0.58984-1.3164-1.3164v-6.2852c0-3.582-3.1836-6.4922-7.0977-6.4922h-12.191c-3.9141 0-7.0977 2.9141-7.0977 6.4922v6.2852c0 0.72656-0.58984 1.3164-1.3164 1.3164-0.72656 0-1.3164-0.58984-1.3164-1.3164v-5.0781c0-2.2266-1.9961-4.0352-4.4492-4.0352h-8.3555c-2.4531 0-4.4492 1.8086-4.4492 4.0352v5.0781c0 0.72656-0.58984 1.3164-1.3164 1.3164s-1.3164-0.58984-1.3164-1.3164v-5.0781c0-3.6758 3.1797-6.668 7.0859-6.668h0.55859c-1.6562-1.4883-2.5273-3.9648-2.5273-6.3438 0-3.3906 2.7578-6.1445 6.1445-6.1445 3.3906 0 6.1445 2.7578 6.1445 6.1445 0 2.3828-0.87109 4.8555-2.5273 6.3438h0.5625c2.0234 0 3.8516 0.80469 5.1406 2.0898 1.4336-3.3672 4.9414-5.7578 9.0391-5.7578h1.625c-0.77344-0.60547-1.457-1.3789-2.0312-2.3086-1.1641-1.8906-1.8594-4.4453-1.8594-6.8281 0-4.6094 3.7539-8.3633 8.3633-8.3633s8.3594 3.7539 8.3594 8.3633c0 3.5-1.3398 7.1445-3.8828 9.1406h1.6211c4.0977 0 7.6055 2.3867 9.0391 5.7578 1.293-1.2852 3.1172-2.0898 5.1406-2.0898h0.5625c-1.6562-1.4883-2.5273-3.9648-2.5273-6.3438 0-3.3906 2.7578-6.1445 6.1445-6.1445 3.3906 0 6.1445 2.7578 6.1445 6.1445 0 2.3828-0.87109 4.8555-2.5273 6.3438h0.55859c3.9062 0 7.0859 2.9922 7.0859 6.668zm-14.773-13.012c0 1.6641 0.85938 5.0977 3.5117 5.0977 2.4219 0 3.5117-2.9805 3.5117-5.0977 0-1.9375-1.5742-3.5117-3.5117-3.5117s-3.5117 1.5742-3.5117 3.5117zm-20.941 1.5781c3.9492 0 5.7227-4.7031 5.7227-8.043 0-3.1602-2.5664-5.7305-5.7227-5.7305s-5.7305 2.5703-5.7305 5.7305c0 3.1094 1.5547 8.043 5.7305 8.043zm-27.977-1.5781c0 2.1172 1.0898 5.0977 3.5117 5.0977 2.6523 0 3.5117-3.4336 3.5117-5.0977 0-1.9375-1.5742-3.5117-3.5117-3.5117s-3.5117 1.5742-3.5117 3.5117zm3.5156-12.484c0.72656 0 1.3164-0.58984 1.3164-1.3164v-11.086l4.3203-3.0859c0.59375-0.42188 0.73047-1.2461 0.30469-1.8359-0.42188-0.59375-1.2461-0.73047-1.8359-0.30469l-4.8711 3.4805c-0.34766 0.24609-0.55078 0.64453-0.55078 1.0703v11.766c0 0.72656 0.58984 1.3164 1.3164 1.3164zm0 1.8516c-0.72266 0-1.3164 0.58984-1.3164 1.3164 0 0.72266 0.59375 1.3164 1.3164 1.3164 0.72656 0 1.3203-0.59375 1.3203-1.3164 0-0.72656-0.59375-1.3164-1.3203-1.3164zm23.141-7.3633c0 0.72266 0.59375 1.3164 1.3203 1.3164 0.72266 0 1.3164-0.59375 1.3164-1.3164 0-0.72656-0.59375-1.3164-1.3164-1.3164-0.72656 0-1.3203 0.58984-1.3203 1.3164zm25.773 7.3633c-0.72656 0-1.3164 0.58984-1.3164 1.3164 0 0.72266 0.58984 1.3164 1.3164 1.3164 0.72266 0 1.3164-0.59375 1.3164-1.3164 0-0.72656-0.59375-1.3164-1.3164-1.3164zm-5.9375-19.18c-0.42188 0.58984-0.28516 1.4141 0.30469 1.8359l4.3164 3.0859v11.086c0 0.72656 0.58984 1.3164 1.3164 1.3164 0.72656 0 1.3164-0.58984 1.3164-1.3164v-11.766c0-0.42578-0.20313-0.82422-0.55078-1.0703l-4.8672-3.4805c-0.58984-0.42188-1.4141-0.28516-1.8359 0.30469zm-27.598-11.066c0-5.0078 4.0742-9.082 9.082-9.082 5.0078 0 9.082 4.0742 9.082 9.082 0 5.0078-4.0742 9.082-9.082 9.082-5.0078 0-9.082-4.0742-9.082-9.082zm2.6328 0c0 3.5547 2.8906 6.4492 6.4492 6.4492 3.5547 0 6.4492-2.8906 6.4492-6.4492 0-3.5547-2.8906-6.4492-6.4492-6.4492-3.5547 0-6.4492 2.8906-6.4492 6.4492zm-13.27 2.3672v-4.7305c0-0.51172 0.29688-0.98047 0.76562-1.1953l3.2188-1.4883 1.0391-2.5078-1.2266-3.3281c-0.17969-0.48047-0.058593-1.0234 0.30469-1.3867l3.3477-3.3477c0.36328-0.36328 0.90234-0.48047 1.3867-0.30469l3.3281 1.2266 2.5078-1.0391 1.4883-3.2188c0.21484-0.46484 0.68359-0.76562 1.1953-0.76562h4.7305c0.51172 0 0.98047 0.29688 1.1953 0.76562l1.4883 3.2188 2.5039 1.0391 3.3281-1.2266c0.48047-0.17969 1.0234-0.058594 1.3867 0.30469l3.3477 3.3477c0.36328 0.36328 0.48047 0.90234 0.30469 1.3867l-1.2266 3.3281 1.0391 2.5078 3.2227 1.4883c0.46484 0.21484 0.76562 0.68359 0.76562 1.1953v4.7305c0 0.51562-0.30078 0.98047-0.76562 1.1953l-3.2227 1.4883-1.0391 2.5 1.2266 3.3281c0.17969 0.48047 0.058594 1.0234-0.30469 1.3867l-3.3477 3.3477c-0.36328 0.36328-0.90234 0.48047-1.3867 0.30469l-3.3281-1.2266-2.5 1.0391-1.4883 3.2227c-0.21484 0.46484-0.68359 0.76562-1.1953 0.76562h-4.7305c-0.51562 0-0.98047-0.30078-1.1953-0.76562l-1.4883-3.2227-2.5078-1.0391-3.3281 1.2266c-0.48047 0.17969-1.0234 0.058594-1.3867-0.30469l-3.3477-3.3477c-0.36328-0.36328-0.48047-0.90234-0.30469-1.3867l1.2266-3.3281-1.0391-2.5039-3.2188-1.4883c-0.46484-0.21484-0.76563-0.68359-0.76563-1.1953zm2.6367-0.84375 2.9219 1.3516c0.30078 0.14062 0.53516 0.38672 0.66406 0.69141l1.4336 3.4531c0.12891 0.30469 0.13281 0.64844 0.019532 0.96094l-1.1133 3.0234 2.1523 2.1523 3.0234-1.1133c0.3125-0.11328 0.65234-0.10937 0.96094 0.019532l3.457 1.4336c0.30469 0.12891 0.55469 0.36328 0.69141 0.66406l1.3516 2.9258h3.0469l1.3516-2.9258c0.14063-0.30078 0.38672-0.53906 0.69141-0.66406l3.4531-1.4336c0.30469-0.12891 0.64844-0.13281 0.96094-0.019532l3.0234 1.1133 2.1523-2.1523-1.1133-3.0234c-0.11328-0.3125-0.10938-0.65234 0.019531-0.96094l1.4336-3.4531c0.12891-0.30469 0.36328-0.55078 0.66406-0.69141l2.9258-1.3516v-3.0469l-2.9258-1.3516c-0.30078-0.14062-0.53906-0.38672-0.66406-0.69141l-1.4336-3.457c-0.12891-0.30469-0.13281-0.64844-0.019531-0.96094l1.1133-3.0234-2.1523-2.1523-3.0234 1.1133c-0.3125 0.11328-0.65234 0.10938-0.96094-0.019531l-3.4531-1.4336c-0.30469-0.12891-0.55078-0.36328-0.69141-0.66406l-1.3516-2.9219h-3.0469l-1.3516 2.9219c-0.14062 0.30078-0.38672 0.53906-0.69141 0.66406l-3.457 1.4336c-0.30469 0.12891-0.64844 0.13281-0.96094 0.019531l-3.0234-1.1133-2.1523 2.1523 1.1133 3.0234c0.11328 0.3125 0.10937 0.65234-0.019532 0.96094l-1.4336 3.457c-0.12891 0.30469-0.36328 0.55469-0.66406 0.69141l-2.9219 1.3516z" fill="#FF007A"/>
</svg>