<svg xmlns="http://www.w3.org/2000/svg" version="1.1" viewBox="-5.0 -10.0 110.0 135.0">
 <path d="m80.41 45.441h-2.1016c-0.37109 0-0.71094-0.23828-0.82031-0.57031-0.26953-0.83984-0.60938-1.6602-1.0117-2.4492-0.16016-0.32031-0.089843-0.71875 0.17188-0.98047l1.4805-1.4805c0.73047-0.73047 0.73047-1.9219 0-2.6484l-3.7188-3.7188c-0.73047-0.73047-1.9219-0.73047-2.6484 0l-1.4883 1.4883c-0.26172 0.26172-0.67188 0.32812-0.98828 0.17188-0.78125-0.39844-1.6016-0.73828-2.4414-1.0195-0.33984-0.10938-0.57031-0.44922-0.57031-0.82031v-2.1016c0-1.0312-0.83984-1.8711-1.8711-1.8711h-5.2617c-1.0312 0-1.8711 0.83984-1.8711 1.8711v2.1016c0 0.37109-0.23828 0.71094-0.57031 0.82031-0.83984 0.26953-1.6719 0.62109-2.4414 1.0195-0.32031 0.16016-0.71875 0.089844-0.98828-0.17188l-1.4883-1.4883c-0.73047-0.73047-1.9219-0.73047-2.6484 0l-3.7188 3.7188c-0.73047 0.73047-0.73047 1.9219 0 2.6484l1.4883 1.4883c0.26172 0.26172 0.32812 0.67188 0.17188 0.98828-0.39844 0.76953-0.73828 1.5898-1.0195 2.4414-0.10938 0.33984-0.44922 0.57031-0.82031 0.57031h-2.1016c-1.0312 0-1.8711 0.83984-1.8711 1.8711v5.2617c0 1.0312 0.83984 1.8711 1.8711 1.8711h2.1016c0.37109 0 0.71094 0.23828 0.82031 0.57031 0.26953 0.83984 0.62109 1.6602 1.0195 2.4414 0.16016 0.32031 0.089843 0.71875-0.17188 0.98828l-1.4883 1.4883c-0.35156 0.35156-0.55078 0.82031-0.55078 1.3203s0.19922 0.96875 0.55078 1.3203l3.7188 3.7188c0.73047 0.73047 1.9219 0.73047 2.6484 0l1.4805-1.4805c0.26953-0.26953 0.66016-0.33984 0.98047-0.17187 0.78125 0.39844 1.6094 0.73828 2.4492 1.0117 0.33984 0.10938 0.57031 0.44922 0.57031 0.82031v2.1016c0 1.0312 0.83984 1.8711 1.8711 1.8711h5.2617c1.0312 0 1.8711-0.83984 1.8711-1.8711v-2.1016c0-0.37109 0.23828-0.71094 0.57031-0.82031 0.83984-0.26953 1.6602-0.60938 2.4492-1.0117 0.32031-0.17188 0.71875-0.089844 0.98047 0.17187l1.4805 1.4805c0.73047 0.73047 1.9219 0.73047 2.6484 0l3.7188-3.7188c0.35156-0.35156 0.55078-0.82031 0.55078-1.3203s-0.19922-0.96875-0.55078-1.3203l-1.4805-1.4805c-0.26953-0.26953-0.33984-0.66016-0.17187-0.98047 0.39844-0.78125 0.73828-1.6094 1.0117-2.4492 0.10938-0.33984 0.44922-0.57031 0.82031-0.57031h2.1016c1.0312 0 1.8711-0.83984 1.8711-1.8711v-5.2617c0.015625-1.0469-0.82422-1.8867-1.8555-1.8867zm-18.629 12.5c-4.4219 0-8-3.5781-8-8s3.5781-8 8-8 8 3.5781 8 8c0 4.418-3.582 8-8 8zm1.5 19v6.8984c0 4.1914-3.4102 7.6016-7.6016 7.6016h-31.801c-4.1914 0-7.6016-3.4102-7.6016-7.6016v-67.801c0-4.1914 3.4102-7.6016 7.6016-7.6016h31.801c4.1914 0 7.6016 3.4102 7.6016 7.6016v6.8984c0 0.82812-0.67188 1.5-1.5 1.5s-1.5-0.67188-1.5-1.5v-6.8984c0-2.5391-2.0586-4.6016-4.6016-4.6016h-5.3984v2.5508c0 1.8984-1.5508 3.4492-3.4492 3.4492l-14.113 0.003906c-1.8984 0-3.4492-1.5508-3.4492-3.4492v-2.5508h-5.3984c-2.5391 0-4.6016 2.0586-4.6016 4.6016v67.801c0 2.5391 2.0586 4.6016 4.6016 4.6016h31.801c2.5391 0 4.6016-2.0586 4.6016-4.6016v-6.8984c0-0.82812 0.67187-1.5 1.5-1.5 0.82812-0.003906 1.5078 0.66406 1.5078 1.4961zm-31.5 4.5h16c0.82812 0 1.5 0.67188 1.5 1.5s-0.67188 1.5-1.5 1.5h-16c-0.82812 0-1.5-0.67188-1.5-1.5 0-0.83203 0.66797-1.5 1.5-1.5zm3.0586-38.441-6.9414 6.9414 6.9414 6.9414c0.58984 0.58984 0.58984 1.5391 0 2.1211-0.28906 0.28906-0.67969 0.44141-1.0586 0.44141s-0.76953-0.14844-1.0586-0.44141l-8-8c-0.58984-0.58984-0.58984-1.5391 0-2.1211l8-8c0.58984-0.58984 1.5391-0.58984 2.1211 0 0.57812 0.58594 0.58594 1.5273-0.003906 2.1172z" fill="#2639ED"/>
</svg>