<svg width="0" height="0" class="hidden">
  <symbol fill="none" xmlns="http://www.w3.org/2000/svg" viewBox="0 0 136 32" id="devlight-logo">
    <g clip-path="url(#clip0_7129_5431)">
      <path fill-rule="evenodd" clip-rule="evenodd" d="M14.3136 0.0790981C23.0396 -0.791879 30.8142 5.6298 31.6788 14.4225C32.0941 18.6452 30.8275 22.8611 28.1577 26.1428C25.4879 29.4245 21.6336 31.5029 17.4429 31.921C8.71682 32.7915 0.942573 26.3693 0.0784525 17.5766C-0.785668 8.7839 5.58755 0.950075 14.3136 0.0790981ZM1.55682 17.4279C2.27976 24.7876 8.7867 30.1633 16.0906 29.435C19.5983 29.0852 22.8244 27.3457 25.0591 24.599C27.2939 21.8524 28.3542 18.3236 28.0069 14.7892C27.2836 7.42955 20.7764 2.05415 13.4725 2.7828C6.16867 3.51144 0.833868 10.0682 1.55682 17.4279Z" fill="#FFA300"></path>
      <path fill-rule="evenodd" clip-rule="evenodd" d="M46.378 12.5254C49.6841 12.5254 51.816 14.0695 51.816 16.5246C51.816 18.9797 49.8412 20.5393 46.378 20.5393H40.1162V12.5254H46.378ZM41.8765 18.9141H46.3435C48.3796 18.9141 50.0557 18.1112 50.0557 16.5169C50.0557 14.9226 48.3777 14.1158 46.3435 14.1158H41.8765V18.9141Z" fill="#191A1A"></path>
      <path d="M64.056 14.1255V12.5254H54.5916V20.5316H64.0598V18.9141H56.3461V17.3256H63.2917V15.7429H56.3461V14.1255H64.056Z" fill="#191A1A"></path>
      <path d="M68.364 12.5254L72.0418 18.9392H73.4267L77.1044 12.5254H79.2727L74.6372 20.5393H70.7909L66.1765 12.5254H68.364Z" fill="#191A1A"></path>
      <path d="M83.0501 18.9392V12.5254H81.2993V20.5393H90.4937V18.9392H83.0501Z" fill="#191A1A"></path>
      <path d="M94.6253 12.5254V20.5393H92.865V12.5254H94.6253Z" fill="#191A1A"></path>
      <path d="M114.273 15.5673V12.5254H112.512V20.5373H114.273V17.148H121.793V20.5393H123.536V12.5254H121.793V15.5673H114.273Z" fill="#191A1A"></path>
      <path d="M135.743 12.5254V14.1255H131.69V20.5393H129.93V14.1235H125.877V12.5254H135.743Z" fill="#191A1A"></path>
      <path d="M101.803 17.37V15.7796H109.114V20.547H102.268C98.9601 20.547 97.127 18.9971 97.127 16.5478C97.127 14.0984 99.0654 12.5331 102.536 12.5331H109.139L109.099 14.1332H102.573C100.515 14.1332 98.8892 14.8878 98.8892 16.5478C98.8892 18.2077 100.27 18.918 102.305 18.9488H104.092C105.09 18.9488 107.268 18.9353 107.268 18.9353V17.37H101.803Z" fill="#191A1A"></path>
    </g>
    <defs>
      <clipPath id="clip0_7129_5431">
        <rect width="136" height="32" fill="white"></rect>
      </clipPath>
    </defs>
  </symbol>
  <symbol xmlns="http://www.w3.org/2000/svg" fill="none" viewBox="0 0 99 33" id="movinga-logo">
    <path fill-rule="evenodd" clip-rule="evenodd" d="M51.1076 0.941233C49.6786 1.38397 48.613 2.82148 48.6242 4.29181C48.6295 4.99584 48.7775 5.46245 49.2559 6.28261C49.6107 6.89091 51.1962 8.60055 51.8068 9.03319L52.1433 9.27165L53.3617 8.02885C54.0319 7.34533 54.7302 6.5257 54.9133 6.2075C55.8498 4.58066 55.6676 2.98389 54.4066 1.76844C53.7474 1.13299 52.9976 0.839726 52.0625 0.851928C51.6799 0.856872 51.2501 0.897054 51.1076 0.941233ZM52.861 2.92414C53.5238 3.42632 53.748 4.1943 53.4195 4.83795C52.702 6.24369 50.5923 5.79043 50.59 4.22996C50.5888 3.50552 51.0335 2.88154 51.6777 2.70356C52.0154 2.61026 52.5873 2.71682 52.861 2.92414ZM27.8 8.20914C25.8308 8.48305 23.9106 9.66137 22.7546 11.3052C22.0784 12.2667 21.8805 12.7658 21.9885 13.2375C22.0372 13.4496 22.078 14.7791 22.0793 16.1917L22.0818 18.7601L22.4403 19.4218C23.4618 21.3077 25.9406 24.0503 28.3317 25.9407L28.8185 26.3256L29.824 25.4968C32.8705 22.9861 35.2472 19.8887 35.9888 17.4627C36.2871 16.4866 36.3107 14.9326 36.0429 13.8863C35.0915 10.1675 31.5006 7.69445 27.8 8.20914ZM7.02713 10.4734C5.84568 10.7641 4.88078 11.4304 4.25621 12.3872L3.94076 12.8705V11.693V10.5156L1.99707 10.5442L0.0533865 10.5728L0.0266411 16.963L0 23.3533H2.22949H4.45908V19.6674C4.45908 15.4845 4.44259 15.5787 5.32135 14.7566C6.45791 13.6937 7.78781 13.9877 8.07921 15.3664C8.14721 15.6882 8.19095 17.3552 8.19095 19.6242V23.3533H10.3679H12.5448V19.6397V15.9261L12.841 15.4521C13.2085 14.8642 13.8243 14.3377 14.3231 14.1852C15.1391 13.9357 15.9354 14.379 16.1627 15.2094C16.2346 15.4722 16.2758 17.025 16.2761 19.4876L16.2767 23.3533H18.4536H20.6305L20.6288 18.6461C20.6268 13.5027 20.581 12.9822 20.0428 11.9786C19.4248 10.8267 18.4651 10.3099 16.9437 10.3099C15.182 10.3099 14.0733 10.7607 13.0023 11.9129C12.6285 12.315 12.3143 12.6277 12.3041 12.6077C12.2939 12.5877 12.1422 12.2874 11.9668 11.9403C11.5913 11.1973 11.0098 10.7021 10.2408 10.4704C9.57548 10.2699 7.84793 10.2715 7.02713 10.4734ZM63.0648 10.5134C61.7954 10.8601 61.0186 11.3664 60.3345 12.2927L59.9189 12.8555V11.6878V10.5202H58.0012H56.0834V16.9367V23.3533H58.2603H60.4373V19.6463V15.9392L60.811 15.3888C61.818 13.9049 63.5463 13.6853 64.1562 14.9636C64.3688 15.4093 64.3765 15.5627 64.3765 19.3893V23.3533H66.5534H68.7303L68.7291 18.4883C68.7278 13.4655 68.709 13.1971 68.286 12.1833C68.0413 11.5966 67.34 10.8891 66.7324 10.6161C65.9681 10.2725 64.1345 10.2212 63.0648 10.5134ZM74.3566 10.4654C71.5516 11.2647 69.8326 13.9842 70.0031 17.3527C70.0979 19.2274 70.6793 20.6837 71.7859 21.8191C72.8834 22.9452 74.1593 23.4212 75.8261 23.3263C77.4341 23.2348 78.5279 22.6176 79.2053 21.4194L79.5093 20.8813L79.5104 21.9954C79.5114 23.2366 79.3625 23.8933 78.9398 24.5122C78.2181 25.5691 76.6305 26.0103 74.975 25.6142C74.273 25.4463 73.2384 24.9559 72.6888 24.5305L72.3452 24.2646L71.2634 25.3586C70.6684 25.9603 70.1816 26.5119 70.1816 26.5844C70.1816 26.7738 71.2578 27.6049 72.0522 28.0289C72.4254 28.2281 73.1018 28.5001 73.5553 28.6334C74.2848 28.8477 74.5954 28.875 76.2459 28.8699C77.98 28.8644 78.1778 28.8435 79.0448 28.5736C81.5479 27.7943 83.1382 26.2465 83.7052 24.0375C83.841 23.5085 83.8652 22.4392 83.8652 16.9673V10.5202H81.9992H80.1333V11.6893V12.8584L79.7076 12.2116C79.2062 11.4496 78.5754 10.931 77.7649 10.6143C77.0008 10.3158 75.1635 10.2356 74.3566 10.4654ZM89.5278 10.4672C88.5763 10.6672 87.5777 11.0071 86.8196 11.3889C86.4775 11.5613 86.1781 11.7203 86.1544 11.7424C86.1306 11.7645 86.3797 12.3684 86.7079 13.0844L87.3047 14.3862L88.2024 13.9253C90.2072 12.8958 92.5737 12.9114 93.2498 13.9585C93.3677 14.141 93.4635 14.5438 93.5017 15.0164C93.5355 15.4362 93.5604 15.7797 93.5568 15.7797C93.5533 15.7797 93.2722 15.6777 92.9321 15.5531C92.0623 15.2345 90.1907 15.1619 89.1136 15.4051C88.0667 15.6415 87.1392 16.1276 86.5035 16.7733C84.5658 18.7412 85.1333 21.9679 87.6239 23.145C89.6087 24.0832 91.7931 23.6287 93.4678 21.9294L94.2168 21.1694L94.3417 21.7091C94.5697 22.6941 94.9802 23.2058 95.7489 23.4633C96.2119 23.6182 97.3493 23.6476 98.3003 23.5289L99 23.4417V21.5719V19.7021L98.6737 19.6071C98.4941 19.5549 98.2496 19.3793 98.1301 19.2169C97.9294 18.9441 97.9083 18.7408 97.8526 16.5355C97.7876 13.9635 97.7356 13.6934 97.0931 12.5808C96.5883 11.7068 95.4458 10.9425 94.076 10.5627C93.2105 10.3227 90.4877 10.2656 89.5278 10.4672ZM36.7435 11.5984C37.364 12.8564 37.6199 13.828 37.7344 15.3589C37.8106 16.3787 37.9039 16.7256 38.951 19.882L40.0851 23.3007H42.5498H45.0145L47.0714 17.1137C48.2028 13.7109 49.157 10.8353 49.192 10.7235C49.2535 10.5269 49.1824 10.5202 47.0272 10.5202H44.7988L44.6423 11.0725C44.5562 11.3762 44.059 13.1631 43.5372 15.0434C42.6863 18.11 42.5035 18.7172 42.5035 18.4783C42.5035 18.4204 40.5622 11.3546 40.3676 10.7043C40.3177 10.5371 40.1248 10.5202 38.2621 10.5202H36.2117L36.7435 11.5984ZM50.3913 11.8065L49.9673 13.0977V18.2254V23.3533H52.145H54.3227L54.296 16.963L54.2693 10.5728L52.5424 10.544L50.8153 10.5152L50.3913 11.8065ZM29.7461 12.1572C31.8529 12.7572 32.8575 15.1677 31.8221 17.1389C31.3063 18.121 30.534 18.697 29.4214 18.9297C28.0005 19.2268 26.4884 18.482 25.7604 17.1265C25.5123 16.6642 25.4535 16.4125 25.4178 15.6584C25.3792 14.8429 25.4034 14.6841 25.6515 14.1332C26.4018 12.4658 28.0452 11.6728 29.7461 12.1572ZM77.9212 14.1948C78.4469 14.437 79.093 15.0747 79.3333 15.5887C79.4723 15.886 79.5113 16.2603 79.5113 17.2995V18.6298L79.0057 19.1428C78.4953 19.6607 77.7689 19.9872 77.127 19.9872C76.0065 19.9872 74.8979 19.1408 74.5841 18.0458C74.3771 17.3231 74.4213 16.2837 74.6863 15.6459C74.8992 15.1334 75.5081 14.4521 75.9792 14.1994C76.4692 13.9366 77.3561 13.9345 77.9212 14.1948ZM92.8661 17.6539C93.227 17.7512 93.5186 17.8664 93.514 17.9097C93.5096 17.9531 93.5058 18.2946 93.5058 18.6687C93.5058 19.2773 93.4725 19.3873 93.1886 19.7154C92.7913 20.1746 91.9329 20.5132 91.1662 20.5132C90.0746 20.5132 89.4627 20.0261 89.4634 19.1578C89.4644 17.7857 90.9385 17.1342 92.8661 17.6539Z" fill="#495057"></path>
  </symbol>
  <symbol xmlns="http://www.w3.org/2000/svg" fill="none" viewBox="0 0 86 25" id="tailor-brands-logo">
    <g clip-path="url(#clip0_7166_15)">
      <path d="M34.1072 10.5765V2.5914H31.8751C31.8044 2.5914 31.7338 2.56371 31.6773 2.50836C31.6208 2.45301 31.5925 2.3838 31.5925 2.31461V1.1383C31.5785 0.999918 31.6914 0.875361 31.8327 0.861521C31.8469 0.861521 31.8609 0.861521 31.8609 0.861521H38.2321C38.3734 0.847691 38.5006 0.958396 38.5147 1.09679C38.5147 1.11062 38.5147 1.12446 38.5147 1.12446V2.28694C38.5147 2.35613 38.4864 2.42533 38.4299 2.48068C38.3734 2.53604 38.3028 2.56371 38.2321 2.56371H35.986V10.5488C35.986 10.618 35.9577 10.6872 35.9012 10.7286C35.8589 10.7841 35.7882 10.8117 35.7176 10.8117H34.3756C34.3049 10.8117 34.2343 10.7841 34.1778 10.7286C34.1353 10.7149 34.1072 10.6457 34.1072 10.5765Z" fill="#495057"></path>
      <path d="M39.4345 10.8579C39.3355 10.8717 39.2507 10.8164 39.1942 10.7472C39.1377 10.6641 39.1377 10.5673 39.1942 10.4981L43.7007 0.921514C43.7432 0.824639 43.842 0.769287 43.955 0.769287H44.0963C44.2093 0.769287 44.3082 0.824639 44.3506 0.921514L48.8289 10.4981C48.8854 10.581 48.8854 10.678 48.8289 10.7472C48.7723 10.8302 48.6876 10.8717 48.5887 10.8579H47.3173C47.1337 10.8579 46.9641 10.7333 46.8934 10.5673L46.173 8.9896H41.8219L41.1155 10.5673C41.0591 10.7472 40.8895 10.8717 40.6917 10.8579H39.4345ZM42.5424 7.45349H45.4666L44.0115 4.32589H43.955L42.5424 7.45349Z" fill="#495057"></path>
      <path d="M51.1987 10.5913V1.167C51.1987 1.09779 51.2269 1.0286 51.2834 0.987087C51.3399 0.931735 51.4105 0.904053 51.4812 0.904053H52.8232C52.8938 0.904053 52.9644 0.931735 53.0068 0.987087C53.0633 1.0286 53.0915 1.09779 53.0915 1.167V10.5913C53.0915 10.6604 53.0633 10.7296 53.0068 10.7712C52.9644 10.8266 52.8938 10.8542 52.8232 10.8542H51.4812C51.4105 10.8542 51.3399 10.8266 51.2834 10.7712C51.2269 10.7296 51.1987 10.6604 51.1987 10.5913Z" fill="#495057"></path>
      <path d="M56.7839 10.5852V1.16082C56.7698 1.02243 56.8827 0.897874 57.024 0.884033C57.0382 0.884033 57.0522 0.884033 57.0522 0.884033H58.3944C58.4649 0.884033 58.5355 0.911715 58.592 0.967067C58.6486 1.02243 58.6768 1.07778 58.6768 1.14698V9.15977H62.3781C62.5193 9.14594 62.6465 9.25665 62.6605 9.39504C62.6605 9.40889 62.6605 9.42272 62.6605 9.42272V10.5852C62.6747 10.7235 62.5617 10.8482 62.4204 10.8619C62.4062 10.8619 62.3921 10.8619 62.3921 10.8619H57.0805C56.9392 10.8758 56.8121 10.7651 56.798 10.6267C56.7839 10.6129 56.7839 10.599 56.7839 10.5852Z" fill="#495057"></path>
      <path d="M65.8618 9.53284C64.8728 8.57795 64.322 7.2771 64.3502 5.90705C64.322 4.53701 64.8728 3.22231 65.8618 2.26743C67.9101 0.260792 71.2157 0.260792 73.2641 2.26743C74.2671 3.22231 74.818 4.53701 74.7898 5.90705C74.7756 8.74402 72.4165 11.0274 69.5205 11.0136C68.1502 11.0136 66.8365 10.4739 65.8618 9.53284ZM67.2179 3.58212C66.5822 4.19103 66.229 5.0352 66.2432 5.90705C66.2432 7.70611 67.7405 9.17303 69.577 9.17303C71.4134 9.17303 72.9109 7.70611 72.9109 5.90705C72.8968 4.108 71.4134 2.64108 69.577 2.62724C68.6729 2.61339 67.8253 2.95937 67.2179 3.58212Z" fill="#495057"></path>
      <path d="M77.7388 10.5856V1.16122C77.7246 1.02284 77.8376 0.89829 77.9789 0.884449C77.993 0.884449 78.0072 0.884449 78.0072 0.884449H82.1745C83.008 0.870608 83.8274 1.20274 84.4066 1.78398C85.014 2.35138 85.353 3.12636 85.339 3.94286C85.353 4.56561 85.1412 5.18836 84.7457 5.68656C84.3501 6.19861 83.7991 6.59994 83.1776 6.8352L85.1694 10.4333C85.2259 10.5164 85.2259 10.6271 85.1694 10.7101C85.1129 10.807 85.0141 10.8623 84.9151 10.8484H83.3895C83.2906 10.8484 83.2058 10.807 83.1634 10.7239L81.2281 6.97359H79.6176V10.5856C79.6176 10.6547 79.5893 10.7239 79.5328 10.7655C79.4763 10.8208 79.4057 10.8484 79.335 10.8484H77.993C77.8517 10.8623 77.7246 10.7516 77.7104 10.6132C77.7388 10.6132 77.7388 10.5993 77.7388 10.5856ZM79.6458 5.43746H82.0192C82.4006 5.43746 82.7537 5.28523 83.0221 5.00845C83.3047 4.74552 83.46 4.37186 83.446 3.98437C83.446 3.61072 83.2905 3.2509 83.0221 3.0018C82.7537 2.73887 82.4006 2.60048 82.0192 2.60048H79.6458V5.43746Z" fill="#495057"></path>
      <path d="M32.8042 14.2637C32.8042 14.1253 32.9172 14.0146 33.0585 14.0146H36.0534C37.7203 14.0146 38.8645 15.0664 38.8645 16.4779C38.8364 17.3775 38.3278 18.194 37.5225 18.6229C38.243 18.9136 39.1613 19.5778 39.1613 20.8095C39.1613 22.3179 37.9464 23.3974 36.1805 23.3974H33.0585C32.9172 23.3974 32.8042 23.2867 32.8042 23.1483V14.2637ZM36.3077 22.4978C37.24 22.5117 38.017 21.792 38.0311 20.8787C38.0311 20.851 38.0311 20.8234 38.0311 20.7957C38.0311 19.8408 37.1411 19.1489 36.0675 19.1489H33.8071V22.4978H36.3077ZM36.0675 18.2216C37.1128 18.2216 37.7062 17.4882 37.7062 16.5471C37.7062 15.6061 37.1128 14.9418 36.0675 14.9418H33.8354V18.2216H36.0675Z" fill="#495057"></path>
      <path d="M41.353 14.2642C41.353 14.1258 41.466 14.0151 41.6073 14.0151H45.1532C46.7778 13.9874 48.1198 15.2605 48.134 16.852V16.8659C48.134 18.0975 47.3005 19.1354 46.1138 19.606L47.9927 23.0103C48.0633 23.1349 48.035 23.2871 47.9079 23.3562C47.8655 23.384 47.8091 23.3978 47.7666 23.3978H47.0886C47.0038 23.3978 46.919 23.3562 46.8766 23.2733L45.0543 19.7167H42.4549V23.1349C42.4549 23.2733 42.3419 23.384 42.2006 23.384H41.6356C41.4943 23.384 41.3813 23.2733 41.3813 23.1349V14.2642H41.353ZM45.0967 18.8448C46.1845 18.8448 47.0603 17.9868 47.0603 16.9212C47.0603 15.8557 46.1845 14.9976 45.0967 14.9976H42.4408V18.8448H45.0967Z" fill="#495057"></path>
      <path d="M49.0843 23.065L53.2518 14.0421C53.2941 13.9452 53.3789 13.8899 53.4778 13.8899H53.619C53.7179 13.8899 53.8027 13.9452 53.845 14.0421L57.9842 23.065C58.0548 23.1757 57.9983 23.328 57.8853 23.3833C57.843 23.4109 57.8005 23.4109 57.7582 23.4109H57.2072C57.1084 23.4109 57.0236 23.3556 56.9812 23.2588L55.9641 21.0446H51.1045L50.1014 23.2588C50.0591 23.3417 49.9743 23.4109 49.8755 23.4109H49.3245C49.1973 23.4248 49.0702 23.328 49.0562 23.1896C49.0562 23.148 49.0702 23.1065 49.0843 23.065ZM55.5967 20.2142C54.9187 18.7473 54.2689 17.2803 53.5907 15.8134H53.4778L51.4718 20.2142H55.5967Z" fill="#495057"></path>
      <path d="M59.48 14.139C59.48 14.0006 59.6071 13.8899 59.7343 13.8899H60.0875L66.2609 21.4183H66.2892V14.2911C66.2892 14.1528 66.4022 14.0421 66.5435 14.0421H67.0239C67.1652 14.0421 67.2781 14.1528 67.2781 14.2911V23.3143C67.2781 23.4526 67.151 23.5634 67.0239 23.5634H66.7696L60.483 15.8827V23.1759C60.483 23.3143 60.3699 23.425 60.2287 23.425H59.7484C59.6071 23.425 59.4941 23.3143 59.4941 23.1759V14.139H59.48Z" fill="#495057"></path>
      <path d="M70.0757 14.2637C70.0757 14.1253 70.1887 14.0146 70.33 14.0146H73.3955C76.0372 14.0146 78.1845 16.1182 78.1845 18.706C78.1845 21.2939 76.0372 23.3974 73.3955 23.3974H70.33C70.1887 23.3974 70.0757 23.2728 70.0757 23.1483V14.2637ZM73.1694 22.4702C75.4156 22.4702 77.0401 20.9064 77.0401 18.6922C77.0401 16.4779 75.4156 14.9279 73.1694 14.9279H71.1211V22.484L73.1694 22.4702Z" fill="#495057"></path>
      <path d="M79.6853 21.9897C79.7559 21.9067 79.8265 21.8098 79.8972 21.7406C80.0384 21.5608 80.1797 21.4638 80.3774 21.6161C80.4764 21.6992 81.4793 22.6402 82.6943 22.6402C83.8104 22.6402 84.5167 21.9621 84.5167 21.1594C84.5167 20.2322 83.6974 19.6786 82.1151 19.042C80.6035 18.4054 79.7134 17.7966 79.7134 16.2604C79.7134 15.347 80.4481 13.8662 82.6237 13.8662C83.4571 13.8801 84.2624 14.1153 84.9687 14.5443C85.11 14.6273 85.1665 14.8072 85.0819 14.9456C85.0677 14.9595 85.0535 14.9871 85.0394 15.001C84.9829 15.0841 84.9264 15.1809 84.8699 15.2501C84.7993 15.4023 84.6156 15.4716 84.4602 15.4162C84.432 15.4023 84.4037 15.3885 84.3896 15.3746C84.2907 15.3193 83.429 14.7519 82.5954 14.7519C81.1404 14.7519 80.7023 15.6653 80.7023 16.2327C80.7023 17.1322 81.3946 17.6581 82.553 18.1286C84.4037 18.8621 85.5904 19.5541 85.5904 21.1041C85.5904 22.5018 84.2342 23.512 82.6378 23.512C81.5783 23.4983 80.547 23.1108 79.7559 22.4187C79.6146 22.3358 79.5581 22.1559 79.6428 22.0175C79.657 22.0312 79.6711 22.0175 79.6853 21.9897Z" fill="#495057"></path>
      <path d="M25.3412 5.06505C25.3271 5.03736 25.3271 5.02352 25.3129 5.00968C25.2988 4.98201 25.2846 4.96817 25.2706 4.94049C25.2564 4.91282 25.2281 4.88514 25.2141 4.85745L25.1999 4.84361C25.1716 4.81594 25.1435 4.78826 25.1152 4.77442V4.76059L19.535 0.166068C19.4927 0.138386 19.4644 0.110705 19.4221 0.0830341C19.4079 0.0691932 19.3796 0.0553523 19.3656 0.0553523C19.3373 0.0415113 19.3231 0.0276818 19.2949 0.0276818L19.2384 0.0138409L19.1678 0H19.0971H19.0123H13.1073H7.2306H7.1458C7.13165 0 7.10346 0 7.08931 0C7.06101 0 7.04685 0.0138409 7.01867 0.0138409C6.99036 0.0138409 6.97633 0.0276818 6.96217 0.0276818C6.87738 0.0553522 6.79258 0.096875 6.7079 0.166068L1.14188 4.70523C1.05711 4.77442 0.986481 4.85745 0.944105 4.94049C0.929977 4.96817 0.915848 4.98201 0.915848 5.00968C0.873473 5.10656 0.845215 5.21727 0.845215 5.31415V14.7523C0.845215 14.9875 0.944105 15.2228 1.12775 15.375L12.5846 24.8132C12.8814 25.0623 13.3193 25.0623 13.63 24.8132L25.1152 15.3058C25.2988 15.1536 25.3977 14.9322 25.3977 14.6969V5.38334C25.3977 5.27262 25.3836 5.16191 25.3412 5.06505ZM13.9266 1.54995H18.1789V5.4802L13.9266 8.81539V1.54995ZM8.03576 1.54995H12.288V8.81539L8.03576 5.4802V1.54995ZM2.46981 5.67395L6.41117 2.46333V5.49405L2.46981 8.76003V5.67395ZM13.1073 23.1386L10.5363 21.0214C11.9348 19.679 14.181 19.7066 15.5512 21.0905L15.5654 21.1043L13.1073 23.1386ZM23.7873 14.3094L16.8227 20.0802C14.8732 18.0322 11.5957 17.9075 9.50503 19.8035C9.43438 19.8727 9.36374 19.9281 9.30725 19.9973L2.48394 14.3925V10.8497L7.25879 6.90562L12.5988 11.0989C12.8954 11.3341 13.3193 11.3341 13.6159 11.0989L18.97 6.89178L23.7731 10.8497L23.7873 14.3094ZM23.7873 8.76003L19.8035 5.49405V2.47717L23.7731 5.74315L23.7873 8.76003Z" fill="#495057"></path>
    </g>
    <defs>
      <clipPath id="clip0_7166_15">
        <rect width="84.7444" height="25" fill="white" transform="translate(0.845215)"></rect>
      </clipPath>
    </defs>
  </symbol>
  <symbol xmlns="http://www.w3.org/2000/svg" fill="none" viewBox="0 0 123 31" id="vodafone-logo">
    <g clip-path="url(#clip0_7166_29)">
      <path fill-rule="evenodd" clip-rule="evenodd" d="M15.6828 30.3611C24.0184 30.3611 30.7735 23.7072 30.7735 15.5C30.7735 9.57559 27.2537 4.46071 22.1604 2.07359C19.4158 2.63393 17.2315 5.15085 17.2399 8.00351C17.2399 8.099 17.2482 8.20004 17.2592 8.24648C21.854 9.34952 23.9394 12.0798 23.9533 15.8558C23.9643 19.6345 20.9361 23.7737 15.8172 23.7901L15.8173 23.7902C11.6717 23.804 7.35692 20.32 7.3375 14.7228C7.32362 11.0233 9.35348 7.46021 11.9435 5.34697C14.4725 3.28832 17.936 1.96411 21.075 1.95319C21.4758 1.95319 21.8957 1.98526 22.1543 2.0707C20.1932 1.15265 17.999 0.638916 15.6828 0.638916C7.34717 0.638916 0.589355 7.29267 0.589355 15.5C0.589355 23.7072 7.34717 30.3611 15.6828 30.3611Z" fill="#495057"></path>
      <path d="M40.524 21.6629L35.9097 10.8208H38.9239L41.8023 18.0206L44.5919 10.8208H47.4703L42.9919 21.6629H40.524Z" fill="#495057"></path>
      <path d="M55.5012 16.1825C55.5012 15.732 55.4484 15.3033 55.3403 14.8965C55.2349 14.4897 55.074 14.1402 54.8606 13.8481C54.647 13.5531 54.3891 13.321 54.084 13.1491C53.7791 12.9743 53.4213 12.8869 53.011 12.8869C52.6005 12.8869 52.2401 12.9743 51.9377 13.1491C51.6328 13.321 51.3722 13.5531 51.1613 13.8481C50.9478 14.1402 50.787 14.4897 50.6816 14.8965C50.5735 15.3033 50.5208 15.732 50.5208 16.1825C50.5208 16.6494 50.5735 17.0835 50.6816 17.4821C50.787 17.8807 50.9423 18.2302 51.1474 18.5305C51.3526 18.8309 51.6134 19.0684 51.9267 19.2431C52.2373 19.4152 52.6005 19.5026 53.011 19.5026C53.4213 19.5026 53.7791 19.4152 54.084 19.2431C54.3891 19.0684 54.647 18.8309 54.8606 18.5305C55.074 18.2302 55.2349 17.8807 55.3403 17.4821C55.4484 17.0835 55.5012 16.6494 55.5012 16.1825ZM58.2879 16.1944C58.2879 16.9015 58.177 17.595 57.9579 18.2776C57.7361 18.9602 57.409 19.569 56.9736 20.1096C56.5409 20.6502 55.9919 21.0843 55.3291 21.4148C54.6664 21.7451 53.8928 21.9089 53.011 21.9089C52.1264 21.9089 51.3528 21.7451 50.6928 21.4148C50.0299 21.0843 49.481 20.6502 49.0456 20.1096C48.6129 19.569 48.2857 18.9602 48.0639 18.2776C47.8448 17.595 47.7339 16.9015 47.7339 16.1944C47.7339 15.49 47.8448 14.802 48.0639 14.1248C48.2857 13.4504 48.6129 12.847 49.0456 12.3146C49.481 11.7822 50.0299 11.3562 50.6928 11.0341C51.3528 10.7119 52.1264 10.5481 53.011 10.5481C53.8928 10.5481 54.6637 10.7119 55.3181 11.0341C55.9725 11.3562 56.5215 11.7822 56.9624 12.3146C57.4061 12.847 57.7361 13.4504 57.9579 14.1248C58.177 14.802 58.2879 15.49 58.2879 16.1944Z" fill="#495057"></path>
      <path d="M66.7831 13.2011C66.2368 12.9909 65.7292 12.8844 65.2578 12.8844C64.7753 12.8844 64.3566 12.9773 64.0099 13.1574C63.6606 13.3375 63.3723 13.5805 63.1448 13.8892C62.9175 14.1977 62.7483 14.5444 62.6345 14.9293C62.5209 15.3116 62.4627 15.7075 62.4627 16.1143C62.4627 16.5649 62.5125 16.9961 62.6124 17.4111C62.7094 17.8234 62.862 18.1867 63.0672 18.4952C63.2696 18.8037 63.5275 19.0521 63.8381 19.2405C64.1487 19.4262 64.5175 19.5217 64.9417 19.5217C65.2911 19.5217 65.6461 19.4263 66.0093 19.2405C66.3726 19.0521 66.6305 18.8282 66.7831 18.5743V13.2011ZM67.0104 21.6568L66.8967 20.8269C66.6389 21.1107 66.2977 21.3619 65.8707 21.5776C65.4465 21.796 64.9445 21.9053 64.3677 21.9053C63.6107 21.9053 62.9396 21.747 62.3656 21.4329C61.786 21.119 61.3008 20.6986 60.907 20.1743C60.5133 19.6501 60.2109 19.0412 60.0058 18.3505C59.8033 17.6623 59.7007 16.9417 59.7007 16.1908C59.7007 15.4863 59.8061 14.7956 60.0169 14.1211C60.2303 13.4468 60.5521 12.8434 60.9846 12.311C61.42 11.7786 61.9608 11.3527 62.6151 11.0305C63.2669 10.7083 64.035 10.5445 64.914 10.5445C65.4908 10.5445 66.1147 10.6509 66.7831 10.8585V6.65381H69.6143V21.6568H67.0104Z" fill="#495057"></path>
      <path d="M77.5979 16.5766C77.2929 16.5924 76.9768 16.6203 76.6551 16.6558C76.3335 16.694 76.0284 16.7432 75.7372 16.8032C75.1217 16.9233 74.6973 17.1282 74.4588 17.4203C74.2232 17.7152 74.1039 18.0319 74.1039 18.3786C74.1039 18.7363 74.237 19.0257 74.506 19.2441C74.7751 19.4598 75.1521 19.569 75.643 19.569C76.0118 19.569 76.3694 19.4953 76.7133 19.3452C77.0572 19.1951 77.3539 19.0066 77.5979 18.7828V16.5766ZM77.8253 21.6522L77.7144 20.8413C77.4066 21.1745 77.0184 21.4365 76.5442 21.625C76.07 21.8134 75.5515 21.909 74.9857 21.909C74.5115 21.909 74.054 21.8297 73.6215 21.6713C73.1833 21.5159 72.7979 21.2891 72.4624 20.997C72.1268 20.7049 71.8551 20.3472 71.6498 19.9185C71.4419 19.4899 71.3394 19.0066 71.3394 18.466C71.3394 17.9281 71.4446 17.4504 71.6609 17.0381C71.8745 16.6258 72.1628 16.279 72.5316 15.9923C72.8977 15.7083 73.3192 15.4764 73.7934 15.2962C74.2648 15.116 74.7639 14.9794 75.2824 14.8893C75.6485 14.8156 76.0506 14.7608 76.486 14.7226C76.9214 14.6844 77.2845 14.6518 77.5757 14.6216V14.4633C77.5757 13.8627 77.4205 13.4367 77.1044 13.1801C76.7911 12.9262 76.3584 12.7979 75.8093 12.7979C75.4877 12.7979 75.1799 12.8361 74.8887 12.9125C74.5975 12.9862 74.3397 13.0791 74.1094 13.191C73.8794 13.3058 73.6769 13.4176 73.4994 13.5296C73.3248 13.6416 73.1833 13.7425 73.0752 13.8326L72.1379 11.8777C72.26 11.7713 72.4457 11.6457 72.6981 11.4955C72.9504 11.3453 73.2527 11.1979 73.6131 11.0559C73.9709 10.9139 74.373 10.7938 74.8221 10.6955C75.2714 10.5972 75.7566 10.5481 76.2724 10.5481C76.8826 10.5481 77.4399 10.6274 77.9418 10.7857C78.4438 10.944 78.879 11.1897 79.2451 11.5283C79.6083 11.8641 79.894 12.2901 80.102 12.8088C80.3071 13.3248 80.4098 13.9501 80.4098 14.6846V21.6522H77.8253Z" fill="#495057"></path>
      <path d="M89.1671 9.11327C89.0756 9.06968 88.8981 9.00411 88.6318 8.92209C88.3629 8.84025 88.0108 8.79925 87.567 8.79925C87.1733 8.79925 86.8405 8.91675 86.5743 9.14874C86.3081 9.38081 86.1751 9.76032 86.1751 10.2845V10.8006H88.5514V13.0503H86.1972V21.6425H83.3631V13.0503H81.9019V10.8006H83.3631V10.2163C83.3631 9.51185 83.4548 8.91667 83.6377 8.42794C83.8207 7.94194 84.0758 7.5433 84.4031 7.23751C84.7303 6.92898 85.1157 6.70239 85.5566 6.56041C86.0003 6.41834 86.48 6.34741 86.9987 6.34741C87.6835 6.34741 88.2493 6.41021 88.6984 6.5386C89.1477 6.667 89.4111 6.75157 89.486 6.798L89.1671 9.11327Z" fill="#495057"></path>
      <path d="M96.8762 16.1824C96.8762 15.7318 96.8207 15.3032 96.7153 14.8964C96.6099 14.4895 96.449 14.1401 96.2356 13.848C96.022 13.553 95.7641 13.3209 95.459 13.149C95.1541 12.9742 94.7963 12.8868 94.386 12.8868C93.9755 12.8868 93.6151 12.9742 93.3127 13.149C93.0078 13.3209 92.7472 13.553 92.5336 13.848C92.3228 14.1401 92.162 14.4895 92.0539 14.8964C91.9485 15.3032 91.8958 15.7318 91.8958 16.1824C91.8958 16.6493 91.9485 17.0834 92.0539 17.482C92.162 17.8806 92.3173 18.23 92.5224 18.5304C92.7278 18.8308 92.9884 19.0683 93.299 19.243C93.6123 19.415 93.9755 19.5024 94.386 19.5024C94.7963 19.5024 95.1541 19.415 95.459 19.243C95.7641 19.0683 96.022 18.8308 96.2356 18.5304C96.449 18.23 96.6099 17.8806 96.7153 17.482C96.8207 17.0834 96.8762 16.6493 96.8762 16.1824ZM99.6629 16.1943C99.6629 16.9014 99.552 17.5949 99.3302 18.2775C99.1111 18.9601 98.784 19.5688 98.3486 20.1094C97.9159 20.6501 97.3669 21.0842 96.7041 21.4146C96.0414 21.745 95.2678 21.9088 94.386 21.9088C93.5014 21.9088 92.7278 21.745 92.0678 21.4146C91.405 21.0842 90.856 20.6501 90.4206 20.1094C89.9879 19.5688 89.6608 18.9601 89.4389 18.2775C89.217 17.5949 89.1089 16.9014 89.1089 16.1943C89.1089 15.4899 89.217 14.8018 89.4389 14.1246C89.6608 13.4503 89.9879 12.8468 90.4206 12.3145C90.856 11.7821 91.405 11.3561 92.0678 11.034C92.7278 10.7118 93.5014 10.548 94.386 10.548C95.2678 10.548 96.0387 10.7118 96.6931 11.034C97.3475 11.3561 97.8965 11.7821 98.3374 12.3145C98.7811 12.8468 99.1111 13.4503 99.3302 14.1246C99.552 14.8018 99.6629 15.4899 99.6629 16.1943Z" fill="#495057"></path>
      <path d="M108.464 21.6611V15.477C108.464 14.6524 108.289 14.0136 107.939 13.5631C107.587 13.1153 107.102 12.8886 106.475 12.8886C106.034 12.8886 105.627 13.0006 105.255 13.2272C104.881 13.451 104.556 13.6995 104.282 13.9698V21.6611H101.451V10.8191H104.032L104.168 11.6737C104.612 11.316 105.108 11.0375 105.666 10.8436C106.22 10.6471 106.78 10.5515 107.343 10.5515C107.923 10.5515 108.455 10.6361 108.943 10.8081C109.431 10.9829 109.85 11.2559 110.199 11.63C110.552 12.004 110.821 12.4927 111.012 13.0907C111.2 13.6914 111.298 14.4122 111.298 15.2503V21.6611H108.464Z" fill="#495057"></path>
      <path d="M120.121 14.9357C120.091 14.5616 120.011 14.234 119.88 13.9581C119.75 13.6797 119.589 13.4559 119.398 13.2838C119.206 13.109 119.001 12.9834 118.779 12.8988C118.555 12.817 118.33 12.776 118.1 12.776C117.609 12.776 117.143 12.956 116.7 13.3166C116.256 13.677 115.995 14.2149 115.918 14.9357H120.121ZM115.851 16.9369C115.912 17.8516 116.201 18.5124 116.722 18.9164C117.24 19.3205 117.914 19.5252 118.738 19.5252C119.121 19.5252 119.481 19.4898 119.817 19.4242C120.152 19.3561 120.451 19.2713 120.712 19.1649C120.973 19.061 121.195 18.9546 121.378 18.8508C121.561 18.7445 121.697 18.6461 121.791 18.556L122.545 20.8304C122.437 20.9041 122.265 21.005 122.029 21.1333C121.794 21.2618 121.5 21.3791 121.15 21.4937C120.801 21.6058 120.388 21.7013 119.916 21.7859C119.445 21.8677 118.926 21.9088 118.364 21.9088C117.645 21.9088 116.966 21.7968 116.317 21.573C115.671 21.3463 115.102 20.9969 114.617 20.5246C114.129 20.0521 113.741 19.4652 113.452 18.7607C113.161 18.0563 113.017 17.2153 113.017 16.2406C113.017 15.326 113.15 14.5151 113.416 13.8107C113.683 13.1063 114.049 12.5138 114.512 12.0333C114.978 11.5554 115.518 11.1869 116.134 10.9302C116.752 10.6763 117.41 10.548 118.111 10.548C118.813 10.548 119.459 10.6627 120.055 10.8865C120.648 11.1104 121.161 11.4599 121.597 11.9322C122.029 12.4046 122.373 13.0162 122.623 13.7669C122.875 14.5151 123 15.4079 123 16.4428V16.9369H115.851Z" fill="#495057"></path>
    </g>
    <defs>
      <clipPath id="clip0_7166_29">
        <rect width="122.411" height="29.7222" fill="white" transform="translate(0.589355 0.638916)"></rect>
      </clipPath>
    </defs>
  </symbol>
  <symbol xmlns="http://www.w3.org/2000/svg" fill="none" viewBox="0 0 78 25" id="visa-logo">
    <g clip-path="url(#clip0_7166_9)">
      <path d="M33.7239 24.6333H27.418L31.3621 0.432617H37.6678L33.7239 24.6333Z" fill="#495057"></path>
      <path d="M56.5899 1.03032C55.3462 0.540652 53.3734 0 50.934 0C44.7067 0 40.3215 3.29524 40.2946 8.00643C40.2429 11.4824 43.4343 13.413 45.8213 14.5719C48.2609 15.7563 49.0902 16.5292 49.0902 17.5849C49.0654 19.2061 47.1188 19.9534 45.3033 19.9534C42.7857 19.9534 41.4367 19.5682 39.3866 18.6661L38.5563 18.2796L37.6738 23.712C39.1528 24.3807 41.8777 24.974 44.7067 25C51.3234 25 55.631 21.7558 55.6821 16.7352C55.7073 13.9802 54.022 11.8693 50.3888 10.1444C48.1834 9.03709 46.8327 8.29044 46.8327 7.15748C46.8584 6.1275 47.9751 5.07255 50.4647 5.07255C52.5148 5.02088 54.021 5.50985 55.162 5.99918L55.7323 6.25616L56.5899 1.03032Z" fill="#495057"></path>
      <path d="M64.9732 16.0599C65.4925 14.6695 67.4908 9.28868 67.4908 9.28868C67.4646 9.34035 68.009 7.87273 68.3204 6.97175L68.7611 9.05703C68.7611 9.05703 69.9553 14.8499 70.2145 16.0599C69.229 16.0599 66.2186 16.0599 64.9732 16.0599ZM72.757 0.432617H67.8793C66.3752 0.432617 65.2324 0.869928 64.5835 2.44055L55.2168 24.6329H61.8335C61.8335 24.6329 62.9228 21.646 63.157 21.0027C63.8827 21.0027 70.3194 21.0027 71.2532 21.0027C71.4342 21.8523 72.0056 24.6329 72.0056 24.6329H77.8442L72.757 0.432617Z" fill="#495057"></path>
      <path d="M22.1469 0.432617L15.9713 16.9352L15.2965 13.5883C14.1548 9.72635 10.574 5.53048 6.57812 3.44419L12.2348 24.6076H18.9031L28.8149 0.432617H22.1469Z" fill="#495057"></path>
      <path d="M10.2494 0.432617H0.103794L0 0.921599C7.91422 2.92988 13.1556 7.77076 15.3091 13.5893L13.1036 2.4669C12.7405 0.921256 11.6246 0.483602 10.2494 0.432617Z" fill="#495057"></path>
    </g>
    <defs>
      <clipPath id="clip0_7166_9">
        <rect width="77.845" height="25" fill="white"></rect>
      </clipPath>
    </defs>
  </symbol>
  <symbol fill="none" xmlns="http://www.w3.org/2000/svg" viewBox="0 0 61 61" id="ui-ux-icon">
    <path d="M12.2 11.4C12.75 11.4 13.2 10.95 13.2 10.4V6.40002C13.2 4.19002 14.99 2.40002 17.2 2.40002H22.52L23.77 5.51002C24.23 6.66002 25.32 7.40002 26.56 7.40002H33.85C35.08 7.40002 36.18 6.66002 36.64 5.51002L37.89 2.40002H43.21C45.42 2.40002 47.21 4.19002 47.21 6.40002V10.4C47.21 10.95 47.66 11.4 48.21 11.4C48.76 11.4 49.21 10.95 49.21 10.4V6.40002C49.21 3.09002 46.52 0.400024 43.21 0.400024H17.21C13.9 0.400024 11.21 3.09002 11.21 6.40002V10.4C11.21 10.95 11.66 11.4 12.21 11.4H12.2ZM35.72 2.40002L34.77 4.77002C34.62 5.15002 34.25 5.40002 33.84 5.40002H26.55C26.14 5.40002 25.77 5.15002 25.62 4.77002L24.67 2.40002H35.72Z" fill="#FF9900"></path>
    <path d="M48.2 51.4C47.65 51.4 47.2 51.85 47.2 52.4V54.4C47.2 56.61 45.41 58.4 43.2 58.4H17.2C14.99 58.4 13.2 56.61 13.2 54.4V52.4C13.2 51.85 12.75 51.4 12.2 51.4C11.65 51.4 11.2 51.85 11.2 52.4V54.4C11.2 57.71 13.89 60.4 17.2 60.4H43.2C46.51 60.4 49.2 57.71 49.2 54.4V52.4C49.2 51.85 48.75 51.4 48.2 51.4Z" fill="#FF9900"></path>
    <path d="M26.2 45.4V17.4C26.2 15.19 24.41 13.4 22.2 13.4H4.20001C1.99001 13.4 0.200012 15.19 0.200012 17.4V45.4C0.200012 47.61 1.99001 49.4 4.20001 49.4H22.2C24.41 49.4 26.2 47.61 26.2 45.4ZM2.20001 45.4V17.4C2.20001 16.3 3.10001 15.4 4.20001 15.4H22.2C23.3 15.4 24.2 16.3 24.2 17.4V45.4C24.2 46.5 23.3 47.4 22.2 47.4H4.20001C3.10001 47.4 2.20001 46.5 2.20001 45.4Z" fill="#FF9900"></path>
    <path d="M56.2 13.4H38.2C35.99 13.4 34.2 15.19 34.2 17.4V45.4C34.2 47.61 35.99 49.4 38.2 49.4H56.2C58.41 49.4 60.2 47.61 60.2 45.4V17.4C60.2 15.19 58.41 13.4 56.2 13.4ZM58.2 45.4C58.2 46.5 57.3 47.4 56.2 47.4H38.2C37.1 47.4 36.2 46.5 36.2 45.4V17.4C36.2 16.3 37.1 15.4 38.2 15.4H56.2C57.3 15.4 58.2 16.3 58.2 17.4V45.4Z" fill="#FF9900"></path>
    <path d="M20.2 35.4H6.20001C5.65001 35.4 5.20001 35.85 5.20001 36.4C5.20001 36.95 5.65001 37.4 6.20001 37.4H20.2C20.75 37.4 21.2 36.95 21.2 36.4C21.2 35.85 20.75 35.4 20.2 35.4Z" fill="#FF9900"></path>
    <path d="M20.2 41.4H6.20001C5.65001 41.4 5.20001 41.85 5.20001 42.4C5.20001 42.95 5.65001 43.4 6.20001 43.4H20.2C20.75 43.4 21.2 42.95 21.2 42.4C21.2 41.85 20.75 41.4 20.2 41.4Z" fill="#FF9900"></path>
    <path d="M13.2 31.4C16.51 31.4 19.2 28.71 19.2 25.4C19.2 22.09 16.51 19.4 13.2 19.4C9.89001 19.4 7.20001 22.09 7.20001 25.4C7.20001 28.71 9.89001 31.4 13.2 31.4ZM13.2 21.4C15.41 21.4 17.2 23.19 17.2 25.4C17.2 27.61 15.41 29.4 13.2 29.4C10.99 29.4 9.20001 27.61 9.20001 25.4C9.20001 23.19 10.99 21.4 13.2 21.4Z" fill="#FF9900"></path>
    <path d="M44.2 17.4H40.2C39.1 17.4 38.2 18.3 38.2 19.4V23.4C38.2 24.5 39.1 25.4 40.2 25.4H44.2C45.3 25.4 46.2 24.5 46.2 23.4V19.4C46.2 18.3 45.3 17.4 44.2 17.4ZM40.2 23.4V19.4H44.2V23.4H40.2Z" fill="#FF9900"></path>
    <path d="M54.2 17.4H50.2C49.1 17.4 48.2 18.3 48.2 19.4V23.4C48.2 24.5 49.1 25.4 50.2 25.4H54.2C55.3 25.4 56.2 24.5 56.2 23.4V19.4C56.2 18.3 55.3 17.4 54.2 17.4ZM50.2 23.4V19.4H54.2V23.4H50.2Z" fill="#FF9900"></path>
    <path d="M44.2 27.4H40.2C39.1 27.4 38.2 28.3 38.2 29.4V33.4C38.2 34.5 39.1 35.4 40.2 35.4H44.2C45.3 35.4 46.2 34.5 46.2 33.4V29.4C46.2 28.3 45.3 27.4 44.2 27.4ZM40.2 33.4V29.4H44.2V33.4H40.2Z" fill="#FF9900"></path>
    <path d="M54.2 27.4H50.2C49.1 27.4 48.2 28.3 48.2 29.4V33.4C48.2 34.5 49.1 35.4 50.2 35.4H54.2C55.3 35.4 56.2 34.5 56.2 33.4V29.4C56.2 28.3 55.3 27.4 54.2 27.4ZM50.2 33.4V29.4H54.2V33.4H50.2Z" fill="#FF9900"></path>
    <path d="M44.2 37.4H40.2C39.1 37.4 38.2 38.3 38.2 39.4V43.4C38.2 44.5 39.1 45.4 40.2 45.4H44.2C45.3 45.4 46.2 44.5 46.2 43.4V39.4C46.2 38.3 45.3 37.4 44.2 37.4ZM40.2 43.4V39.4H44.2V43.4H40.2Z" fill="#FF9900"></path>
    <path d="M54.2 37.4H50.2C49.1 37.4 48.2 38.3 48.2 39.4V43.4C48.2 44.5 49.1 45.4 50.2 45.4H54.2C55.3 45.4 56.2 44.5 56.2 43.4V39.4C56.2 38.3 55.3 37.4 54.2 37.4ZM50.2 43.4V39.4H54.2V43.4H50.2Z" fill="#FF9900"></path>
  </symbol>
  <symbol fill="none" xmlns="http://www.w3.org/2000/svg" viewBox="0 0 67 84" id="mobile-development-icon">
    <path d="M64.41 37.441H62.3084C61.9373 37.441 61.5975 37.2027 61.4881 36.8707C61.2186 36.0308 60.8787 35.2105 60.4764 34.4215C60.3162 34.1011 60.3865 33.7027 60.6483 33.441L62.1288 31.9605C62.8592 31.23 62.8592 30.0386 62.1288 29.3121L58.41 25.5933C57.6795 24.8628 56.4881 24.8628 55.7616 25.5933L54.2733 27.0816C54.0115 27.3433 53.6014 27.4097 53.285 27.2535C52.5037 26.855 51.6834 26.5152 50.8436 26.234C50.5037 26.1246 50.2733 25.7847 50.2733 25.4137V23.3121C50.2733 22.2809 49.4334 21.441 48.4022 21.441H43.1405C42.1093 21.441 41.2694 22.2808 41.2694 23.3121V25.4137C41.2694 25.7847 41.0311 26.1246 40.6991 26.234C39.8592 26.5035 39.0272 26.8551 38.2577 27.2535C37.9374 27.4136 37.5389 27.3433 37.2694 27.0816L35.7811 25.5933C35.0506 24.8628 33.8592 24.8628 33.1327 25.5933L29.4139 29.3121C28.6834 30.0426 28.6834 31.234 29.4139 31.9605L30.9022 33.4488C31.1639 33.7105 31.2303 34.1207 31.0741 34.4371C30.6756 35.2066 30.3358 36.0269 30.0546 36.8785C29.9452 37.2183 29.6053 37.4488 29.2343 37.4488H27.1327C26.1015 37.4488 25.2616 38.2886 25.2616 39.3199V44.5816C25.2616 45.6128 26.1014 46.4527 27.1327 46.4527H29.2343C29.6053 46.4527 29.9452 46.691 30.0546 47.023C30.3241 47.8628 30.6757 48.6832 31.0741 49.4644C31.2342 49.7847 31.1639 50.1831 30.9022 50.4527L29.4139 51.941C29.0623 52.2925 28.8631 52.7613 28.8631 53.2613C28.8631 53.7613 29.0623 54.23 29.4139 54.5816L33.1327 58.3004C33.8632 59.0308 35.0546 59.0308 35.7811 58.3004L37.2616 56.8199C37.5311 56.5503 37.9217 56.48 38.2421 56.648C39.0233 57.0464 39.8515 57.3863 40.6913 57.6597C41.0311 57.7691 41.2616 58.1089 41.2616 58.48V60.5816C41.2616 61.6128 42.1014 62.4527 43.1327 62.4527H48.3944C49.4256 62.4527 50.2655 61.6129 50.2655 60.5816V58.48C50.2655 58.1089 50.5037 57.7691 50.8358 57.6597C51.6756 57.3902 52.496 57.0503 53.285 56.648C53.6053 56.4761 54.0037 56.5582 54.2654 56.8199L55.7459 58.3004C56.4764 59.0308 57.6678 59.0308 58.3943 58.3004L62.1131 54.5816C62.4647 54.23 62.6639 53.7613 62.6639 53.2613C62.6639 52.7613 62.4647 52.2925 62.1131 51.941L60.6326 50.4605C60.3631 50.1909 60.2928 49.8003 60.4608 49.48C60.8592 48.6987 61.1991 47.8706 61.4725 47.0308C61.5819 46.691 61.9217 46.4605 62.2928 46.4605H64.3944C65.4256 46.4605 66.2655 45.6206 66.2655 44.5894V39.3277C66.2811 38.2808 65.4413 37.441 64.41 37.441ZM45.781 49.941C41.3591 49.941 37.781 46.3629 37.781 41.941C37.781 37.5191 41.3591 33.941 45.781 33.941C50.2029 33.941 53.781 37.5191 53.781 41.941C53.781 46.359 50.199 49.941 45.781 49.941ZM47.281 68.941V75.8394C47.281 80.0308 43.8708 83.441 39.6794 83.441H7.8784C3.687 83.441 0.276794 80.0308 0.276794 75.8394V8.03837C0.276794 3.84697 3.687 0.436768 7.8784 0.436768H39.6794C43.8708 0.436768 47.281 3.84697 47.281 8.03837V14.9368C47.281 15.7649 46.6091 16.4368 45.781 16.4368C44.9529 16.4368 44.281 15.7649 44.281 14.9368V8.03837C44.281 5.49927 42.2224 3.43677 39.6794 3.43677H34.281V5.98757C34.281 7.88597 32.7302 9.43677 30.8318 9.43677L16.7188 9.44067C14.8204 9.44067 13.2696 7.88987 13.2696 5.99147V3.44067H7.87119C5.33209 3.44067 3.26959 5.49927 3.26959 8.04227V75.8433C3.26959 78.3824 5.32819 80.4449 7.87119 80.4449H39.6722C42.2113 80.4449 44.2738 78.3863 44.2738 75.8433V68.9449C44.2738 68.1168 44.9457 67.4449 45.7738 67.4449C46.6019 67.441 47.281 68.1089 47.281 68.941ZM15.781 73.441H31.781C32.6091 73.441 33.281 74.1129 33.281 74.941C33.281 75.7691 32.6091 76.441 31.781 76.441H15.781C14.9529 76.441 14.281 75.7691 14.281 74.941C14.281 74.1089 14.949 73.441 15.781 73.441ZM18.8396 35L11.8982 41.9414L18.8396 48.8828C19.4294 49.4726 19.4294 50.4219 18.8396 51.0039C18.5505 51.2929 18.1599 51.4453 17.781 51.4453C17.4021 51.4453 17.0115 51.2968 16.7224 51.0039L8.72239 43.0039C8.13255 42.414 8.13255 41.4648 8.72239 40.8828L16.7224 32.8828C17.3122 32.2929 18.2615 32.2929 18.8435 32.8828C19.4216 33.4687 19.4294 34.4101 18.8396 35Z" fill="#2639ED"></path>
  </symbol>
  <symbol fill="none" xmlns="http://www.w3.org/2000/svg" viewBox="0 0 20 20" id="app-store-icon">
    <path d="M10 0C15.5 0 20 4.5 20 10C20 15.5 15.5 20 10 20C4.5 20 0 15.5 0 10C0 4.5 4.5 0 10 0ZM10 2C5.6 2 2 5.6 2 10C2 14.4 5.6 18 10 18C14.4 18 18 14.4 18 10C18 5.6 14.4 2 10 2ZM6.8 13.3L6 14.7C5.8 15.1 5.3 15.2 4.9 15C4.5 14.8 4.4 14.3 4.6 13.9L5.2 12.9C5.9 12.7 6.4 12.8 6.8 13.3ZM11.2 6.7L13.6 10.9H15.7C16.2 10.9 16.5 11.3 16.5 11.7C16.5 12.2 16.1 12.5 15.7 12.5H14.5L15.3 13.9C15.5 14.3 15.4 14.8 15 15C14.6 15.2 14.1 15.1 13.9 14.7L10.9 9.4C10.2 8.3 10.7 7.1 11.2 6.7ZM11.5 3.6C11.9 3.8 12 4.3 11.8 4.7L8.3 10.8H10.9C11.7 10.8 12.2 11.8 11.8 12.4H4.3C3.8 12.4 3.5 12 3.5 11.6C3.5 11.1 3.9 10.8 4.3 10.8H6.4L9 6.2L8.2 4.7C8 4.3 8.1 3.8 8.5 3.6C8.9 3.4 9.4 3.5 9.6 3.9L10 4.6L10.4 4C10.6 3.5 11.1 3.4 11.5 3.6Z" fill="#00DA71"></path>
  </symbol>
  <symbol fill="none" xmlns="http://www.w3.org/2000/svg" viewBox="0 0 72 80" id="development-team-icon">
    <path d="M29.48 73.82V78.6833C29.48 79.4098 28.8902 79.9997 28.1636 79.9997C27.437 79.9997 26.8472 79.4098 26.8472 78.6833V73.82C26.8472 73.0934 27.437 72.5036 28.1636 72.5036C28.8902 72.5036 29.48 73.0934 29.48 73.82ZM43.843 72.5036C43.1164 72.5036 42.5266 73.0934 42.5266 73.82V78.6833C42.5266 79.4098 43.1164 79.9997 43.843 79.9997C44.5696 79.9997 45.1594 79.4098 45.1594 78.6833V73.82C45.1594 73.0934 44.5696 72.5036 43.843 72.5036ZM71.718 73.6052V78.6833C71.718 79.4098 71.1282 79.9997 70.4016 79.9997C69.675 79.9997 69.0852 79.4098 69.0852 78.6833V73.6052C69.0852 71.3786 67.0891 69.57 64.636 69.57H56.2805C53.8274 69.57 51.8313 71.3786 51.8313 73.6052V78.6833C51.8313 79.4098 51.2415 79.9997 50.5149 79.9997C49.7883 79.9997 49.1985 79.4098 49.1985 78.6833V72.3981C49.1985 68.8161 46.0149 65.9059 42.1008 65.9059H29.9098C25.9957 65.9059 22.8121 68.82 22.8121 72.3981V78.6833C22.8121 79.4098 22.2223 79.9997 21.4957 79.9997C20.7691 79.9997 20.1793 79.4098 20.1793 78.6833V73.6052C20.1793 71.3786 18.1832 69.57 15.7301 69.57H7.3746C4.9215 69.57 2.9254 71.3786 2.9254 73.6052V78.6833C2.9254 79.4098 2.33556 79.9997 1.609 79.9997C0.882443 79.9997 0.292603 79.4098 0.292603 78.6833V73.6052C0.292603 69.9294 3.4723 66.9372 7.3785 66.9372H7.93709C6.28089 65.4489 5.40979 62.9724 5.40979 60.5934C5.40979 57.2028 8.16759 54.4489 11.5543 54.4489C14.9449 54.4489 17.6988 57.2067 17.6988 60.5934C17.6988 62.9762 16.8277 65.4489 15.1715 66.9372H15.734C17.7574 66.9372 19.5856 67.7419 20.8746 69.027C22.3082 65.6598 25.816 63.2692 29.9137 63.2692H31.5387C30.7653 62.6637 30.0817 61.8903 29.5075 60.9606C28.3434 59.07 27.6481 56.5153 27.6481 54.1325C27.6481 49.5231 31.402 45.7692 36.0114 45.7692C40.6208 45.7692 44.3708 49.5231 44.3708 54.1325C44.3708 57.6325 43.031 61.277 40.488 63.2731H42.1091C46.2068 63.2731 49.7146 65.6598 51.1482 69.0309C52.4412 67.7457 54.2654 66.9411 56.2888 66.9411H56.8513C55.1951 65.4528 54.324 62.9763 54.324 60.5973C54.324 57.2067 57.0818 54.4528 60.4685 54.4528C63.8591 54.4528 66.613 57.2106 66.613 60.5973C66.613 62.9801 65.7419 65.4528 64.0857 66.9411H64.6443C68.5505 66.9411 71.7302 69.9333 71.7302 73.6091L71.718 73.6052ZM56.945 60.5932C56.945 62.2573 57.8044 65.6909 60.4567 65.6909C62.8786 65.6909 63.9684 62.7104 63.9684 60.5932C63.9684 58.6557 62.3942 57.0815 60.4567 57.0815C58.5192 57.0815 56.945 58.6557 56.945 60.5932ZM36.004 62.1713C39.9532 62.1713 41.7267 57.4682 41.7267 54.1283C41.7267 50.9681 39.1603 48.3978 36.004 48.3978C32.8477 48.3978 30.2735 50.9681 30.2735 54.1283C30.2735 57.2377 31.8282 62.1713 36.004 62.1713ZM8.027 60.5932C8.027 62.7104 9.1168 65.6909 11.5387 65.6909C14.191 65.6909 15.0504 62.2573 15.0504 60.5932C15.0504 58.6557 13.4762 57.0815 11.5387 57.0815C9.6012 57.0815 8.027 58.6557 8.027 60.5932ZM11.5426 48.1092C12.2692 48.1092 12.859 47.5193 12.859 46.7928V35.7068L17.1793 32.6209C17.7731 32.199 17.9098 31.3748 17.484 30.785C17.0621 30.1912 16.2379 30.0545 15.6481 30.4803L10.777 33.9608C10.4293 34.2069 10.2262 34.6053 10.2262 35.0311V46.7971C10.2262 47.5237 10.8161 48.1135 11.5426 48.1135L11.5426 48.1092ZM11.5426 49.9608C10.8199 49.9608 10.2262 50.5506 10.2262 51.2772C10.2262 51.9998 10.82 52.5936 11.5426 52.5936C12.2692 52.5936 12.8629 51.9998 12.8629 51.2772C12.8629 50.5506 12.2692 49.9608 11.5426 49.9608ZM34.6836 42.5975C34.6836 43.3201 35.2774 43.9139 36.0039 43.9139C36.7266 43.9139 37.3203 43.3201 37.3203 42.5975C37.3203 41.8709 36.7266 41.2811 36.0039 41.2811C35.2773 41.2811 34.6836 41.8709 34.6836 42.5975ZM60.4566 49.9608C59.73 49.9608 59.1402 50.5506 59.1402 51.2772C59.1402 51.9998 59.73 52.5936 60.4566 52.5936C61.1793 52.5936 61.773 51.9998 61.773 51.2772C61.773 50.5506 61.1793 49.9608 60.4566 49.9608ZM54.5191 30.7808C54.0972 31.3706 54.2339 32.1949 54.8238 32.6167L59.1402 35.7026V46.7886C59.1402 47.5151 59.73 48.105 60.4566 48.105C61.1832 48.105 61.773 47.5151 61.773 46.7886V35.0226C61.773 34.5968 61.5699 34.1984 61.2222 33.9523L56.355 30.4718C55.7652 30.0499 54.9409 30.1866 54.5191 30.7765L54.5191 30.7808ZM26.9211 19.7148C26.9211 14.707 30.9953 10.6328 36.0031 10.6328C41.0109 10.6328 45.0851 14.707 45.0851 19.7148C45.0851 24.7226 41.0109 28.7968 36.0031 28.7968C30.9953 28.7968 26.9211 24.7226 26.9211 19.7148ZM29.5539 19.7148C29.5539 23.2695 32.4445 26.164 36.0031 26.164C39.5578 26.164 42.4523 23.2734 42.4523 19.7148C42.4523 16.1601 39.5617 13.2656 36.0031 13.2656C32.4484 13.2656 29.5539 16.1562 29.5539 19.7148ZM16.2839 22.082V17.3515C16.2839 16.8398 16.5808 16.371 17.0495 16.1562L20.2683 14.6679L21.3074 12.1601L20.0808 8.83198C19.9011 8.35151 20.0222 7.80858 20.3855 7.44528L23.7332 4.09758C24.0965 3.7343 24.6356 3.61711 25.1199 3.79289L28.448 5.01949L30.9558 3.98039L32.4441 0.761592C32.659 0.296752 33.1277 -0.00402832 33.6394 -0.00402832H38.3699C38.8816 -0.00402832 39.3504 0.292852 39.5652 0.761592L41.0535 3.98039L43.5574 5.01949L46.8855 3.79289C47.366 3.6132 47.9089 3.7343 48.2722 4.09758L51.6199 7.44528C51.9832 7.80856 52.1004 8.34762 51.9246 8.83198L50.698 12.1601L51.7371 14.6679L54.9598 16.1562C55.4246 16.371 55.7254 16.8398 55.7254 17.3515V22.082C55.7254 22.5976 55.4246 23.0625 54.9598 23.2773L51.7371 24.7656L50.698 27.2656L51.9246 30.5937C52.1043 31.0742 51.9832 31.6171 51.6199 31.9804L48.2722 35.3281C47.9089 35.6914 47.3699 35.8086 46.8855 35.6328L43.5574 34.4062L41.0574 35.4453L39.5691 38.668C39.3543 39.1328 38.8855 39.4336 38.3738 39.4336H33.6433C33.1277 39.4336 32.6628 39.1328 32.448 38.668L30.9597 35.4453L28.4519 34.4062L25.1238 35.6328C24.6433 35.8125 24.1004 35.6914 23.7371 35.3281L20.3894 31.9804C20.0261 31.6171 19.9089 31.078 20.0847 30.5937L21.3113 27.2656L20.2722 24.7617L17.0534 23.2734C16.5886 23.0585 16.2878 22.5898 16.2878 22.0781L16.2839 22.082ZM18.9206 21.2382L21.8425 22.5898C22.1433 22.7305 22.3777 22.9766 22.5066 23.2812L23.9402 26.7343C24.0691 27.039 24.073 27.3828 23.9597 27.6953L22.8464 30.7187L24.9987 32.871L28.0221 31.7577C28.3346 31.6444 28.6744 31.6483 28.983 31.7772L32.44 33.2108C32.7447 33.3397 32.9947 33.5741 33.1314 33.8749L34.483 36.8007H37.5299L38.8815 33.8749C39.0222 33.5741 39.2683 33.3358 39.573 33.2108L43.0261 31.7772C43.3307 31.6483 43.6745 31.6444 43.987 31.7577L47.0104 32.871L49.1627 30.7187L48.0494 27.6953C47.9361 27.3828 47.94 27.0429 48.0689 26.7343L49.5025 23.2812C49.6314 22.9766 49.8658 22.7305 50.1666 22.5898L53.0924 21.2382V18.1913L50.1666 16.8397C49.8658 16.6991 49.6275 16.453 49.5025 16.1483L48.0689 12.6913C47.94 12.3866 47.9361 12.0429 48.0494 11.7304L49.1627 8.70698L47.0104 6.55468L43.987 7.66798C43.6745 7.78126 43.3347 7.77736 43.0261 7.64845L39.573 6.21485C39.2683 6.08594 39.0222 5.85157 38.8815 5.55079L37.5299 2.62889H34.483L33.1314 5.55079C32.9908 5.85157 32.7447 6.08985 32.44 6.21485L28.983 7.64845C28.6783 7.77736 28.3346 7.78126 28.0221 7.66798L24.9987 6.55468L22.8464 8.70698L23.9597 11.7304C24.073 12.0429 24.0691 12.3827 23.9402 12.6913L22.5066 16.1483C22.3777 16.453 22.1433 16.703 21.8425 16.8397L18.9206 18.1913V21.2382Z" fill="#FF007A"></path>
  </symbol>
  <symbol fill="none" xmlns="http://www.w3.org/2000/svg" viewBox="0 0 404 154" id="dot-ornament">
    <circle cx="211.5" cy="3.5" r="3.5" fill="#F4F4F4"></circle>
    <circle cx="211.5" cy="24.5" r="3.5" fill="#F4F4F4"></circle>
    <circle cx="211.5" cy="45.5" r="3.5" fill="#F4F4F4"></circle>
    <circle cx="211.5" cy="66.5" r="3.5" fill="#F4F4F4"></circle>
    <circle cx="211.5" cy="87.5" r="3.5" fill="#F4F4F4"></circle>
    <circle cx="211.5" cy="108.5" r="3.5" fill="#F4F4F4"></circle>
    <circle cx="211.5" cy="129.5" r="3.5" fill="#F4F4F4"></circle>
    <circle cx="211.5" cy="150.5" r="3.5" fill="#F4F4F4"></circle>
    <circle cx="232.5" cy="3.5" r="3.5" fill="#F4F4F4"></circle>
    <circle cx="232.5" cy="24.5" r="3.5" fill="#F4F4F4"></circle>
    <circle cx="232.5" cy="45.5" r="3.5" fill="#F4F4F4"></circle>
    <circle cx="232.5" cy="66.5" r="3.5" fill="#F4F4F4"></circle>
    <circle cx="232.5" cy="87.5" r="3.5" fill="#F4F4F4"></circle>
    <circle cx="232.5" cy="108.5" r="3.5" fill="#F4F4F4"></circle>
    <circle cx="232.5" cy="129.5" r="3.5" fill="#F4F4F4"></circle>
    <circle cx="232.5" cy="150.5" r="3.5" fill="#F4F4F4"></circle>
    <circle cx="253.5" cy="3.5" r="3.5" fill="#F4F4F4"></circle>
    <circle cx="253.5" cy="24.5" r="3.5" fill="#F4F4F4"></circle>
    <circle cx="253.5" cy="45.5" r="3.5" fill="#F4F4F4"></circle>
    <circle cx="253.5" cy="66.5" r="3.5" fill="#F4F4F4"></circle>
    <circle cx="253.5" cy="87.5" r="3.5" fill="#F4F4F4"></circle>
    <circle cx="253.5" cy="108.5" r="3.5" fill="#F4F4F4"></circle>
    <circle cx="253.5" cy="129.5" r="3.5" fill="#F4F4F4"></circle>
    <circle cx="253.5" cy="150.5" r="3.5" fill="#F4F4F4"></circle>
    <circle cx="274.5" cy="3.5" r="3.5" fill="#F4F4F4"></circle>
    <circle cx="274.5" cy="24.5" r="3.5" fill="#F4F4F4"></circle>
    <circle cx="274.5" cy="45.5" r="3.5" fill="#F4F4F4"></circle>
    <circle cx="274.5" cy="66.5" r="3.5" fill="#F4F4F4"></circle>
    <circle cx="274.5" cy="87.5" r="3.5" fill="#F4F4F4"></circle>
    <circle cx="274.5" cy="108.5" r="3.5" fill="#F4F4F4"></circle>
    <circle cx="274.5" cy="129.5" r="3.5" fill="#F4F4F4"></circle>
    <circle cx="274.5" cy="150.5" r="3.5" fill="#F4F4F4"></circle>
    <circle cx="295.5" cy="3.5" r="3.5" fill="#F4F4F4"></circle>
    <circle cx="295.5" cy="24.5" r="3.5" fill="#F4F4F4"></circle>
    <circle cx="295.5" cy="45.5" r="3.5" fill="#F4F4F4"></circle>
    <circle cx="295.5" cy="66.5" r="3.5" fill="#F4F4F4"></circle>
    <circle cx="295.5" cy="87.5" r="3.5" fill="#F4F4F4"></circle>
    <circle cx="295.5" cy="108.5" r="3.5" fill="#F4F4F4"></circle>
    <circle cx="295.5" cy="129.5" r="3.5" fill="#F4F4F4"></circle>
    <circle cx="295.5" cy="150.5" r="3.5" fill="#F4F4F4"></circle>
    <circle cx="316.5" cy="3.5" r="3.5" fill="#F4F4F4"></circle>
    <circle cx="316.5" cy="24.5" r="3.5" fill="#F4F4F4"></circle>
    <circle cx="316.5" cy="45.5" r="3.5" fill="#F4F4F4"></circle>
    <circle cx="316.5" cy="66.5" r="3.5" fill="#F4F4F4"></circle>
    <circle cx="316.5" cy="87.5" r="3.5" fill="#F4F4F4"></circle>
    <circle cx="316.5" cy="108.5" r="3.5" fill="#F4F4F4"></circle>
    <circle cx="316.5" cy="129.5" r="3.5" fill="#F4F4F4"></circle>
    <circle cx="316.5" cy="150.5" r="3.5" fill="#F4F4F4"></circle>
    <circle cx="337.5" cy="3.5" r="3.5" fill="#F4F4F4"></circle>
    <circle cx="337.5" cy="24.5" r="3.5" fill="#F4F4F4"></circle>
    <circle cx="337.5" cy="45.5" r="3.5" fill="#F4F4F4"></circle>
    <circle cx="337.5" cy="66.5" r="3.5" fill="#F4F4F4"></circle>
    <circle cx="337.5" cy="87.5" r="3.5" fill="#F4F4F4"></circle>
    <circle cx="337.5" cy="108.5" r="3.5" fill="#F4F4F4"></circle>
    <circle cx="337.5" cy="129.5" r="3.5" fill="#F4F4F4"></circle>
    <circle cx="337.5" cy="150.5" r="3.5" fill="#F4F4F4"></circle>
    <circle cx="358.5" cy="3.5" r="3.5" fill="#F4F4F4"></circle>
    <circle cx="358.5" cy="24.5" r="3.5" fill="#F4F4F4"></circle>
    <circle cx="358.5" cy="45.5" r="3.5" fill="#F4F4F4"></circle>
    <circle cx="358.5" cy="66.5" r="3.5" fill="#F4F4F4"></circle>
    <circle cx="358.5" cy="87.5" r="3.5" fill="#F4F4F4"></circle>
    <circle cx="358.5" cy="108.5" r="3.5" fill="#F4F4F4"></circle>
    <circle cx="358.5" cy="129.5" r="3.5" fill="#F4F4F4"></circle>
    <circle cx="358.5" cy="150.5" r="3.5" fill="#F4F4F4"></circle>
    <circle cx="379.5" cy="3.5" r="3.5" fill="#F4F4F4"></circle>
    <circle cx="379.5" cy="24.5" r="3.5" fill="#F4F4F4"></circle>
    <circle cx="379.5" cy="45.5" r="3.5" fill="#F4F4F4"></circle>
    <circle cx="379.5" cy="66.5" r="3.5" fill="#F4F4F4"></circle>
    <circle cx="379.5" cy="87.5" r="3.5" fill="#F4F4F4"></circle>
    <circle cx="379.5" cy="108.5" r="3.5" fill="#F4F4F4"></circle>
    <circle cx="379.5" cy="129.5" r="3.5" fill="#F4F4F4"></circle>
    <circle cx="379.5" cy="150.5" r="3.5" fill="#F4F4F4"></circle>
    <circle cx="400.5" cy="3.5" r="3.5" fill="#F4F4F4"></circle>
    <circle cx="400.5" cy="24.5" r="3.5" fill="#F4F4F4"></circle>
    <circle cx="400.5" cy="45.5" r="3.5" fill="#F4F4F4"></circle>
    <circle cx="400.5" cy="66.5" r="3.5" fill="#F4F4F4"></circle>
    <circle cx="400.5" cy="87.5" r="3.5" fill="#F4F4F4"></circle>
    <circle cx="400.5" cy="108.5" r="3.5" fill="#F4F4F4"></circle>
    <circle cx="400.5" cy="129.5" r="3.5" fill="#F4F4F4"></circle>
    <circle cx="400.5" cy="150.5" r="3.5" fill="#F4F4F4"></circle>
    <circle cx="3.5" cy="3.5" r="3.5" fill="#F4F4F4"></circle>
    <circle cx="3.5" cy="24.5" r="3.5" fill="#F4F4F4"></circle>
    <circle cx="3.5" cy="45.5" r="3.5" fill="#F4F4F4"></circle>
    <circle cx="3.5" cy="66.5" r="3.5" fill="#F4F4F4"></circle>
    <circle cx="3.5" cy="87.5" r="3.5" fill="#F4F4F4"></circle>
    <circle cx="3.5" cy="108.5" r="3.5" fill="#F4F4F4"></circle>
    <circle cx="3.5" cy="129.5" r="3.5" fill="#F4F4F4"></circle>
    <circle cx="3.5" cy="150.5" r="3.5" fill="#F4F4F4"></circle>
    <circle cx="24.5" cy="3.5" r="3.5" fill="#F4F4F4"></circle>
    <circle cx="24.5" cy="24.5" r="3.5" fill="#F4F4F4"></circle>
    <circle cx="24.5" cy="45.5" r="3.5" fill="#F4F4F4"></circle>
    <circle cx="24.5" cy="66.5" r="3.5" fill="#F4F4F4"></circle>
    <circle cx="24.5" cy="87.5" r="3.5" fill="#F4F4F4"></circle>
    <circle cx="24.5" cy="108.5" r="3.5" fill="#F4F4F4"></circle>
    <circle cx="24.5" cy="129.5" r="3.5" fill="#F4F4F4"></circle>
    <circle cx="24.5" cy="150.5" r="3.5" fill="#F4F4F4"></circle>
    <circle cx="45.5" cy="3.5" r="3.5" fill="#F4F4F4"></circle>
    <circle cx="45.5" cy="24.5" r="3.5" fill="#F4F4F4"></circle>
    <circle cx="45.5" cy="45.5" r="3.5" fill="#F4F4F4"></circle>
    <circle cx="45.5" cy="66.5" r="3.5" fill="#F4F4F4"></circle>
    <circle cx="45.5" cy="87.5" r="3.5" fill="#F4F4F4"></circle>
    <circle cx="45.5" cy="108.5" r="3.5" fill="#F4F4F4"></circle>
    <circle cx="45.5" cy="129.5" r="3.5" fill="#F4F4F4"></circle>
    <circle cx="45.5" cy="150.5" r="3.5" fill="#F4F4F4"></circle>
    <circle cx="66.5" cy="3.5" r="3.5" fill="#F4F4F4"></circle>
    <circle cx="66.5" cy="24.5" r="3.5" fill="#F4F4F4"></circle>
    <circle cx="66.5" cy="45.5" r="3.5" fill="#F4F4F4"></circle>
    <circle cx="66.5" cy="66.5" r="3.5" fill="#F4F4F4"></circle>
    <circle cx="66.5" cy="87.5" r="3.5" fill="#F4F4F4"></circle>
    <circle cx="66.5" cy="108.5" r="3.5" fill="#F4F4F4"></circle>
    <circle cx="66.5" cy="129.5" r="3.5" fill="#F4F4F4"></circle>
    <circle cx="66.5" cy="150.5" r="3.5" fill="#F4F4F4"></circle>
    <circle cx="87.5" cy="3.5" r="3.5" fill="#F4F4F4"></circle>
    <circle cx="87.5" cy="24.5" r="3.5" fill="#F4F4F4"></circle>
    <circle cx="87.5" cy="45.5" r="3.5" fill="#F4F4F4"></circle>
    <circle cx="87.5" cy="66.5" r="3.5" fill="#F4F4F4"></circle>
    <circle cx="87.5" cy="87.5" r="3.5" fill="#F4F4F4"></circle>
    <circle cx="87.5" cy="108.5" r="3.5" fill="#F4F4F4"></circle>
    <circle cx="87.5" cy="129.5" r="3.5" fill="#F4F4F4"></circle>
    <circle cx="87.5" cy="150.5" r="3.5" fill="#F4F4F4"></circle>
    <circle cx="108.5" cy="3.5" r="3.5" fill="#F4F4F4"></circle>
    <circle cx="108.5" cy="24.5" r="3.5" fill="#F4F4F4"></circle>
    <circle cx="108.5" cy="45.5" r="3.5" fill="#F4F4F4"></circle>
    <circle cx="108.5" cy="66.5" r="3.5" fill="#F4F4F4"></circle>
    <circle cx="108.5" cy="87.5" r="3.5" fill="#F4F4F4"></circle>
    <circle cx="108.5" cy="108.5" r="3.5" fill="#F4F4F4"></circle>
    <circle cx="108.5" cy="129.5" r="3.5" fill="#F4F4F4"></circle>
    <circle cx="108.5" cy="150.5" r="3.5" fill="#F4F4F4"></circle>
    <circle cx="129.5" cy="3.5" r="3.5" fill="#F4F4F4"></circle>
    <circle cx="129.5" cy="24.5" r="3.5" fill="#F4F4F4"></circle>
    <circle cx="129.5" cy="45.5" r="3.5" fill="#F4F4F4"></circle>
    <circle cx="129.5" cy="66.5" r="3.5" fill="#F4F4F4"></circle>
    <circle cx="129.5" cy="87.5" r="3.5" fill="#F4F4F4"></circle>
    <circle cx="129.5" cy="108.5" r="3.5" fill="#F4F4F4"></circle>
    <circle cx="129.5" cy="129.5" r="3.5" fill="#F4F4F4"></circle>
    <circle cx="129.5" cy="150.5" r="3.5" fill="#F4F4F4"></circle>
    <circle cx="150.5" cy="3.5" r="3.5" fill="#F4F4F4"></circle>
    <circle cx="150.5" cy="24.5" r="3.5" fill="#F4F4F4"></circle>
    <circle cx="150.5" cy="45.5" r="3.5" fill="#F4F4F4"></circle>
    <circle cx="150.5" cy="66.5" r="3.5" fill="#F4F4F4"></circle>
    <circle cx="150.5" cy="87.5" r="3.5" fill="#F4F4F4"></circle>
    <circle cx="150.5" cy="108.5" r="3.5" fill="#F4F4F4"></circle>
    <circle cx="150.5" cy="129.5" r="3.5" fill="#F4F4F4"></circle>
    <circle cx="150.5" cy="150.5" r="3.5" fill="#F4F4F4"></circle>
    <circle cx="171.5" cy="3.5" r="3.5" fill="#F4F4F4"></circle>
    <circle cx="171.5" cy="24.5" r="3.5" fill="#F4F4F4"></circle>
    <circle cx="171.5" cy="45.5" r="3.5" fill="#F4F4F4"></circle>
    <circle cx="171.5" cy="66.5" r="3.5" fill="#F4F4F4"></circle>
    <circle cx="171.5" cy="87.5" r="3.5" fill="#F4F4F4"></circle>
    <circle cx="171.5" cy="108.5" r="3.5" fill="#F4F4F4"></circle>
    <circle cx="171.5" cy="129.5" r="3.5" fill="#F4F4F4"></circle>
    <circle cx="171.5" cy="150.5" r="3.5" fill="#F4F4F4"></circle>
    <circle cx="192.5" cy="3.5" r="3.5" fill="#F4F4F4"></circle>
    <circle cx="192.5" cy="24.5" r="3.5" fill="#F4F4F4"></circle>
    <circle cx="192.5" cy="45.5" r="3.5" fill="#F4F4F4"></circle>
    <circle cx="192.5" cy="66.5" r="3.5" fill="#F4F4F4"></circle>
    <circle cx="192.5" cy="87.5" r="3.5" fill="#F4F4F4"></circle>
    <circle cx="192.5" cy="108.5" r="3.5" fill="#F4F4F4"></circle>
    <circle cx="192.5" cy="129.5" r="3.5" fill="#F4F4F4"></circle>
    <circle cx="192.5" cy="150.5" r="3.5" fill="#F4F4F4"></circle>
  </symbol>
  <symbol fill="none" xmlns="http://www.w3.org/2000/svg" viewBox="0 0 175 154" id="dot-ornament-blue">
    <circle cx="3.5" cy="3.5" r="3.5" fill="#DFEEFF"></circle>
    <circle cx="3.5" cy="24.5" r="3.5" fill="#DFEEFF"></circle>
    <circle cx="3.5" cy="45.5" r="3.5" fill="#DFEEFF"></circle>
    <circle cx="3.5" cy="66.5" r="3.5" fill="#DFEEFF"></circle>
    <circle cx="3.5" cy="87.5" r="3.5" fill="#DFEEFF"></circle>
    <circle cx="3.5" cy="108.5" r="3.5" fill="#DFEEFF"></circle>
    <circle cx="3.5" cy="129.5" r="3.5" fill="#DFEEFF"></circle>
    <circle cx="3.5" cy="150.5" r="3.5" fill="#DFEEFF"></circle>
    <circle cx="24.5" cy="3.5" r="3.5" fill="#DFEEFF"></circle>
    <circle cx="24.5" cy="24.5" r="3.5" fill="#DFEEFF"></circle>
    <circle cx="24.5" cy="45.5" r="3.5" fill="#DFEEFF"></circle>
    <circle cx="24.5" cy="66.5" r="3.5" fill="#DFEEFF"></circle>
    <circle cx="24.5" cy="87.5" r="3.5" fill="#DFEEFF"></circle>
    <circle cx="24.5" cy="108.5" r="3.5" fill="#DFEEFF"></circle>
    <circle cx="24.5" cy="129.5" r="3.5" fill="#DFEEFF"></circle>
    <circle cx="24.5" cy="150.5" r="3.5" fill="#DFEEFF"></circle>
    <circle cx="45.5" cy="3.5" r="3.5" fill="#DFEEFF"></circle>
    <circle cx="45.5" cy="24.5" r="3.5" fill="#DFEEFF"></circle>
    <circle cx="45.5" cy="45.5" r="3.5" fill="#DFEEFF"></circle>
    <circle cx="45.5" cy="66.5" r="3.5" fill="#DFEEFF"></circle>
    <circle cx="45.5" cy="87.5" r="3.5" fill="#DFEEFF"></circle>
    <circle cx="45.5" cy="108.5" r="3.5" fill="#DFEEFF"></circle>
    <circle cx="45.5" cy="129.5" r="3.5" fill="#DFEEFF"></circle>
    <circle cx="45.5" cy="150.5" r="3.5" fill="#DFEEFF"></circle>
    <circle cx="66.5" cy="3.5" r="3.5" fill="#DFEEFF"></circle>
    <circle cx="66.5" cy="24.5" r="3.5" fill="#DFEEFF"></circle>
    <circle cx="66.5" cy="45.5" r="3.5" fill="#DFEEFF"></circle>
    <circle cx="66.5" cy="66.5" r="3.5" fill="#DFEEFF"></circle>
    <circle cx="66.5" cy="87.5" r="3.5" fill="#DFEEFF"></circle>
    <circle cx="66.5" cy="108.5" r="3.5" fill="#DFEEFF"></circle>
    <circle cx="66.5" cy="129.5" r="3.5" fill="#DFEEFF"></circle>
    <circle cx="66.5" cy="150.5" r="3.5" fill="#DFEEFF"></circle>
    <circle cx="87.5" cy="3.5" r="3.5" fill="#DFEEFF"></circle>
    <circle cx="87.5" cy="24.5" r="3.5" fill="#DFEEFF"></circle>
    <circle cx="87.5" cy="45.5" r="3.5" fill="#DFEEFF"></circle>
    <circle cx="87.5" cy="66.5" r="3.5" fill="#DFEEFF"></circle>
    <circle cx="87.5" cy="87.5" r="3.5" fill="#DFEEFF"></circle>
    <circle cx="87.5" cy="108.5" r="3.5" fill="#DFEEFF"></circle>
    <circle cx="87.5" cy="129.5" r="3.5" fill="#DFEEFF"></circle>
    <circle cx="87.5" cy="150.5" r="3.5" fill="#DFEEFF"></circle>
    <circle cx="108.5" cy="3.5" r="3.5" fill="#DFEEFF"></circle>
    <circle cx="108.5" cy="24.5" r="3.5" fill="#DFEEFF"></circle>
    <circle cx="108.5" cy="45.5" r="3.5" fill="#DFEEFF"></circle>
    <circle cx="108.5" cy="66.5" r="3.5" fill="#DFEEFF"></circle>
    <circle cx="108.5" cy="87.5" r="3.5" fill="#DFEEFF"></circle>
    <circle cx="108.5" cy="108.5" r="3.5" fill="#DFEEFF"></circle>
    <circle cx="108.5" cy="129.5" r="3.5" fill="#DFEEFF"></circle>
    <circle cx="108.5" cy="150.5" r="3.5" fill="#DFEEFF"></circle>
    <circle cx="129.5" cy="3.5" r="3.5" fill="#DFEEFF"></circle>
    <circle cx="129.5" cy="24.5" r="3.5" fill="#DFEEFF"></circle>
    <circle cx="129.5" cy="45.5" r="3.5" fill="#DFEEFF"></circle>
    <circle cx="129.5" cy="66.5" r="3.5" fill="#DFEEFF"></circle>
    <circle cx="129.5" cy="87.5" r="3.5" fill="#DFEEFF"></circle>
    <circle cx="129.5" cy="108.5" r="3.5" fill="#DFEEFF"></circle>
    <circle cx="129.5" cy="129.5" r="3.5" fill="#DFEEFF"></circle>
    <circle cx="129.5" cy="150.5" r="3.5" fill="#DFEEFF"></circle>
    <circle cx="150.5" cy="3.5" r="3.5" fill="#DFEEFF"></circle>
    <circle cx="150.5" cy="24.5" r="3.5" fill="#DFEEFF"></circle>
    <circle cx="150.5" cy="45.5" r="3.5" fill="#DFEEFF"></circle>
    <circle cx="150.5" cy="66.5" r="3.5" fill="#DFEEFF"></circle>
    <circle cx="150.5" cy="87.5" r="3.5" fill="#DFEEFF"></circle>
    <circle cx="150.5" cy="108.5" r="3.5" fill="#DFEEFF"></circle>
    <circle cx="150.5" cy="129.5" r="3.5" fill="#DFEEFF"></circle>
    <circle cx="150.5" cy="150.5" r="3.5" fill="#DFEEFF"></circle>
    <circle cx="171.5" cy="3.5" r="3.5" fill="#DFEEFF"></circle>
    <circle cx="171.5" cy="24.5" r="3.5" fill="#DFEEFF"></circle>
    <circle cx="171.5" cy="45.5" r="3.5" fill="#DFEEFF"></circle>
    <circle cx="171.5" cy="66.5" r="3.5" fill="#DFEEFF"></circle>
    <circle cx="171.5" cy="87.5" r="3.5" fill="#DFEEFF"></circle>
    <circle cx="171.5" cy="108.5" r="3.5" fill="#DFEEFF"></circle>
    <circle cx="171.5" cy="129.5" r="3.5" fill="#DFEEFF"></circle>
    <circle cx="171.5" cy="150.5" r="3.5" fill="#DFEEFF"></circle>
  </symbol>
  <symbol fill="none" xmlns="http://www.w3.org/2000/svg" viewBox="0 0 36 36" id="linkedin-icon">
    <path d="M18 35.9998C27.9411 35.9998 36 27.9409 36 17.9998C36 8.05863 27.9411 -0.000244141 18 -0.000244141C8.05884 -0.000244141 -3.05176e-05 8.05863 -3.05176e-05 17.9998C-3.05176e-05 27.9409 8.05884 35.9998 18 35.9998Z" fill="#007AB9"></path>
    <path d="M28.7548 19.4483V26.8693H24.4523V19.9456C24.4523 18.2071 23.8311 17.0199 22.2733 17.0199C21.0845 17.0199 20.3783 17.8192 20.0664 18.5931C19.9531 18.8697 19.9239 19.2538 19.9239 19.6417V26.8689H15.6211C15.6211 26.8689 15.6788 15.1425 15.6211 13.9287H19.9242V15.7625C19.9156 15.7769 19.9034 15.791 19.8957 15.8048H19.9242V15.7625C20.496 14.8826 21.5157 13.6248 23.8019 13.6248C26.6326 13.6248 28.7548 15.4743 28.7548 19.4483ZM11.12 7.69104C9.64813 7.69104 8.68521 8.65717 8.68521 9.92652C8.68521 11.1689 9.62022 12.163 11.0635 12.163H11.0914C12.5921 12.163 13.5252 11.1689 13.5252 9.92652C13.4966 8.65717 12.5921 7.69104 11.12 7.69104ZM8.94094 26.8693H13.2422V13.9287H8.94094V26.8693Z" fill="#F1F2F2"></path>
  </symbol>
  <symbol fill="none" xmlns="http://www.w3.org/2000/svg" viewBox="0 0 36 36" id="twitter-icon">
    <g clip-path="url(#clip0_2_631)">
      <path d="M18.0002 35.9997C27.9412 35.9997 36 27.9409 36 17.9998C36 8.0588 27.9412 0 18.0002 0C8.05917 0 0.000366211 8.0588 0.000366211 17.9998C0.000366211 27.9409 8.05917 35.9997 18.0002 35.9997Z" fill="#55ACEE"></path>
      <path d="M29.0257 12.9359C28.2543 13.278 27.4246 13.5093 26.5544 13.6126C27.4428 13.0803 28.1247 12.238 28.4465 11.2328C27.6151 11.7259 26.6939 12.0837 25.7143 12.2766C24.9295 11.4407 23.8113 10.9183 22.5731 10.9183C20.1974 10.9183 18.2706 12.8451 18.2706 15.2208C18.2706 15.558 18.3088 15.8863 18.3826 16.2014C14.8069 16.022 11.6364 14.3092 9.51424 11.7054C9.14396 12.3407 8.93155 13.0803 8.93155 13.8687C8.93155 15.361 9.69167 16.6785 10.8455 17.4498C10.1406 17.4277 9.4767 17.2342 8.89689 16.9111C8.89657 16.9294 8.89657 16.9477 8.89657 16.9657C8.89657 19.0503 10.3803 20.7891 12.3481 21.1841C11.9875 21.2829 11.6066 21.3352 11.2148 21.3352C10.9369 21.3352 10.6677 21.3086 10.4053 21.2585C10.9527 22.9674 12.5413 24.2114 14.4244 24.2464C12.9517 25.4005 11.0967 26.0882 9.08043 26.0882C8.7339 26.0882 8.39057 26.0679 8.05463 26.0278C9.95767 27.249 12.2198 27.961 14.6493 27.961C22.5631 27.961 26.891 21.4051 26.891 15.7191C26.891 15.5327 26.8868 15.3469 26.8784 15.1627C27.7198 14.5563 28.4491 13.7987 29.0257 12.9359Z" fill="#F1F2F2"></path>
    </g>
    <defs>
      <clipPath id="clip0_2_631">
        <rect width="36" height="36" fill="white"></rect>
      </clipPath>
    </defs>
  </symbol>
  <symbol fill="none" xmlns="http://www.w3.org/2000/svg" viewBox="0 0 36 36" id="facebook-icon">
    <path d="M18 36C27.9411 36 36 27.9411 36 18C36 8.05888 27.9411 0 18 0C8.05888 0 0 8.05888 0 18C0 27.9411 8.05888 36 18 36Z" fill="#3B5998"></path>
    <path d="M22.5252 18.7046H19.3133V30.4715H14.447V18.7046H12.1326V14.5693H14.447V11.8933C14.447 9.97961 15.3561 6.98303 19.3566 6.98303L22.9613 6.99811V11.0122H20.3459C19.9169 11.0122 19.3136 11.2265 19.3136 12.1394V14.5731H22.9503L22.5252 18.7046Z" fill="white"></path>
  </symbol>
</svg>
