<svg xmlns="http://www.w3.org/2000/svg" data-name="UI/UX Design" viewBox="-3.2 -6.4 70.4 86.4" x="0px" y="0px">
  <path
    d="m14,13c.55,0,1-.45,1-1v-4c0-2.21,1.79-4,4-4h5.32l1.25,3.11c.46,1.15,1.55,1.89,2.79,1.89h7.29c1.23,0,2.33-.74,2.79-1.89l1.25-3.11h5.32c2.21,0,4,1.79,4,4v4c0,.55.45,1,1,1s1-.45,1-1v-4c0-3.31-2.69-6-6-6h-26c-3.31,0-6,2.69-6,6v4c0,.55.45,1,1,1Zm23.52-9l-.95,2.37c-.15.38-.52.63-.93.63h-7.29c-.41,0-.78-.25-.93-.63l-.95-2.37h11.05Z"
    fill="#FF9900" />
  <path
    d="m50,53c-.55,0-1,.45-1,1v2c0,2.21-1.79,4-4,4h-26c-2.21,0-4-1.79-4-4v-2c0-.55-.45-1-1-1s-1,.45-1,1v2c0,3.31,2.69,6,6,6h26c3.31,0,6-2.69,6-6v-2c0-.55-.45-1-1-1Z"
    fill="#FF9900" />
  <path
    d="m28,47v-28c0-2.21-1.79-4-4-4H6c-2.21,0-4,1.79-4,4v28c0,2.21,1.79,4,4,4h18c2.21,0,4-1.79,4-4Zm-24,0v-28c0-1.1.9-2,2-2h18c1.1,0,2,.9,2,2v28c0,1.1-.9,2-2,2H6c-1.1,0-2-.9-2-2Z"
    fill="#FF9900" />
  <path
    d="m58,15h-18c-2.21,0-4,1.79-4,4v28c0,2.21,1.79,4,4,4h18c2.21,0,4-1.79,4-4v-28c0-2.21-1.79-4-4-4Zm2,32c0,1.1-.9,2-2,2h-18c-1.1,0-2-.9-2-2v-28c0-1.1.9-2,2-2h18c1.1,0,2,.9,2,2v28Z"
    fill="#FF9900" />
  <path
    d="m22,37h-14c-.55,0-1,.45-1,1s.45,1,1,1h14c.55,0,1-.45,1-1s-.45-1-1-1Z"
    fill="#FF9900" />
  <path
    d="m22,43h-14c-.55,0-1,.45-1,1s.45,1,1,1h14c.55,0,1-.45,1-1s-.45-1-1-1Z"
    fill="#FF9900" />
  <path
    d="m15,33c3.31,0,6-2.69,6-6s-2.69-6-6-6-6,2.69-6,6,2.69,6,6,6Zm0-10c2.21,0,4,1.79,4,4s-1.79,4-4,4-4-1.79-4-4,1.79-4,4-4Z"
    fill="#FF9900" />
  <path
    d="m46,19h-4c-1.1,0-2,.9-2,2v4c0,1.1.9,2,2,2h4c1.1,0,2-.9,2-2v-4c0-1.1-.9-2-2-2Zm-4,6v-4h4v4s-4,0-4,0Z"
    fill="#FF9900" />
  <path
    d="m56,19h-4c-1.1,0-2,.9-2,2v4c0,1.1.9,2,2,2h4c1.1,0,2-.9,2-2v-4c0-1.1-.9-2-2-2Zm-4,6v-4h4v4s-4,0-4,0Z"
    fill="#FF9900" />
  <path
    d="m46,29h-4c-1.1,0-2,.9-2,2v4c0,1.1.9,2,2,2h4c1.1,0,2-.9,2-2v-4c0-1.1-.9-2-2-2Zm-4,6v-4h4v4s-4,0-4,0Z"
    fill="#FF9900" />
  <path
    d="m56,29h-4c-1.1,0-2,.9-2,2v4c0,1.1.9,2,2,2h4c1.1,0,2-.9,2-2v-4c0-1.1-.9-2-2-2Zm-4,6v-4h4v4s-4,0-4,0Z"
    fill="#FF9900" />
  <path
    d="m46,39h-4c-1.1,0-2,.9-2,2v4c0,1.1.9,2,2,2h4c1.1,0,2-.9,2-2v-4c0-1.1-.9-2-2-2Zm-4,6v-4h4v4s-4,0-4,0Z"
    fill="#FF9900" />
  <path
    d="m56,39h-4c-1.1,0-2,.9-2,2v4c0,1.1.9,2,2,2h4c1.1,0,2-.9,2-2v-4c0-1.1-.9-2-2-2Zm-4,6v-4h4v4s-4,0-4,0Z"
    fill="#FF9900" />
</svg>
